ISO-10303-21;
HEADER;
/* Generated by software containing ST-Developer
 * from STEP Tools, Inc. (www.steptools.com) 
 */

FILE_DESCRIPTION(
/* description */ (''),
/* implementation_level */ '2;1');

FILE_NAME(
/* name */ 'Motor Arm.step',
/* time_stamp */ '2026-08-23T17:56:05-04:00',
/* author */ (''),
/* organization */ (''),
/* preprocessor_version */ 'ST-DEVELOPER v20.1',
/* originating_system */ 'Autodesk Translation Framework v15.8.0.0',
/* authorisation */ '');

FILE_SCHEMA (('AUTOMOTIVE_DESIGN { 1 0 10303 214 3 1 1 }'));
ENDSEC;

DATA;
#10=MECHANICAL_DESIGN_GEOMETRIC_PRESENTATION_REPRESENTATION('',(#13,#14),
#1258);
#11=SHAPE_REPRESENTATION_RELATIONSHIP('SRR','None',#1265,#12);
#12=ADVANCED_BREP_SHAPE_REPRESENTATION('',(#15,#16),#1257);
#13=STYLED_ITEM('',(#1274),#15);
#14=STYLED_ITEM('',(#1274),#16);
#15=MANIFOLD_SOLID_BREP('Body96',#575);
#16=MANIFOLD_SOLID_BREP('Body97',#576);
#17=(
BOUNDED_SURFACE()
B_SPLINE_SURFACE(1,2,((#1200,#1201,#1202,#1203,#1204,#1205,#1206,#1207,
#1208),(#1209,#1210,#1211,#1212,#1213,#1214,#1215,#1216,#1217)),
 .UNSPECIFIED.,.F.,.T.,.F.)
B_SPLINE_SURFACE_WITH_KNOTS((2,2),(3,2,2,2,3),(0.,3.1818181818182),(-3.14159265358979,
-1.5707963267949,0.,1.5707963267949,3.14159265358979),.UNSPECIFIED.)
GEOMETRIC_REPRESENTATION_ITEM()
RATIONAL_B_SPLINE_SURFACE(((1.,0.707106781186548,1.,0.707106781186548,1.,
0.707106781186548,1.,0.707106781186548,1.),(1.,0.707106781186548,1.,0.707106781186548,
1.,0.707106781186548,1.,0.707106781186548,1.)))
REPRESENTATION_ITEM('')
SURFACE()
);
#18=(
BOUNDED_SURFACE()
B_SPLINE_SURFACE(1,2,((#1236,#1237,#1238,#1239,#1240,#1241,#1242,#1243,
#1244),(#1245,#1246,#1247,#1248,#1249,#1250,#1251,#1252,#1253)),
 .UNSPECIFIED.,.F.,.T.,.F.)
B_SPLINE_SURFACE_WITH_KNOTS((2,2),(3,2,2,2,3),(0.454545454545457,2.72727272727274),
(-3.14159265358979,-1.5707963267949,0.,1.5707963267949,3.14159265358979),
 .UNSPECIFIED.)
GEOMETRIC_REPRESENTATION_ITEM()
RATIONAL_B_SPLINE_SURFACE(((1.,0.707106781186548,1.,0.707106781186548,1.,
0.707106781186548,1.,0.707106781186548,1.),(1.,0.707106781186548,1.,0.707106781186548,
1.,0.707106781186548,1.,0.707106781186548,1.)))
REPRESENTATION_ITEM('')
SURFACE()
);
#19=ELLIPSE('',#618,4.39999999999998,1.40000000000001);
#20=ELLIPSE('',#638,4.39999999999998,1.40000000000001);
#21=ELLIPSE('',#653,4.39999999999998,1.40000000000001);
#22=ELLIPSE('',#655,4.39999999999998,1.40000000000001);
#23=FACE_BOUND('',#191,.T.);
#24=FACE_BOUND('',#192,.T.);
#25=FACE_BOUND('',#193,.T.);
#26=FACE_BOUND('',#194,.T.);
#27=FACE_BOUND('',#205,.T.);
#28=FACE_BOUND('',#206,.T.);
#29=FACE_BOUND('',#207,.T.);
#30=FACE_BOUND('',#208,.T.);
#31=FACE_BOUND('',#209,.T.);
#32=FACE_BOUND('',#210,.T.);
#33=FACE_BOUND('',#211,.T.);
#34=FACE_BOUND('',#212,.T.);
#35=LINE('',#918,#67);
#36=LINE('',#934,#68);
#37=LINE('',#956,#69);
#38=LINE('',#958,#70);
#39=LINE('',#974,#71);
#40=LINE('',#975,#72);
#41=LINE('',#994,#73);
#42=LINE('',#995,#74);
#43=LINE('',#998,#75);
#44=LINE('',#1000,#76);
#45=LINE('',#1001,#77);
#46=LINE('',#1004,#78);
#47=LINE('',#1008,#79);
#48=LINE('',#1009,#80);
#49=LINE('',#1012,#81);
#50=LINE('',#1013,#82);
#51=LINE('',#1057,#83);
#52=LINE('',#1073,#84);
#53=LINE('',#1141,#85);
#54=LINE('',#1157,#86);
#55=LINE('',#1174,#87);
#56=LINE('',#1176,#88);
#57=LINE('',#1177,#89);
#58=LINE('',#1197,#90);
#59=LINE('',#1199,#91);
#60=LINE('',#1218,#92);
#61=LINE('',#1220,#93);
#62=LINE('',#1222,#94);
#63=LINE('',#1224,#95);
#64=LINE('',#1226,#96);
#65=LINE('',#1228,#97);
#66=LINE('',#1254,#98);
#67=VECTOR('',#682,10.);
#68=VECTOR('',#683,10.);
#69=VECTOR('',#692,10.);
#70=VECTOR('',#693,10.);
#71=VECTOR('',#696,10.);
#72=VECTOR('',#697,10.);
#73=VECTOR('',#706,10.);
#74=VECTOR('',#707,10.);
#75=VECTOR('',#710,10.);
#76=VECTOR('',#711,10.);
#77=VECTOR('',#712,10.);
#78=VECTOR('',#715,10.);
#79=VECTOR('',#720,10.);
#80=VECTOR('',#721,10.);
#81=VECTOR('',#724,10.);
#82=VECTOR('',#725,10.);
#83=VECTOR('',#744,10.);
#84=VECTOR('',#745,10.);
#85=VECTOR('',#754,10.);
#86=VECTOR('',#757,10.);
#87=VECTOR('',#764,10.);
#88=VECTOR('',#767,10.);
#89=VECTOR('',#768,10.);
#90=VECTOR('',#791,2.15);
#91=VECTOR('',#794,3.17712758430561);
#92=VECTOR('',#795,4.39999999999998);
#93=VECTOR('',#798,1.54999999999998);
#94=VECTOR('',#801,2.15);
#95=VECTOR('',#804,2.15);
#96=VECTOR('',#807,2.15);
#97=VECTOR('',#810,1.54999999999998);
#98=VECTOR('',#821,4.39999999999998);
#99=CYLINDRICAL_SURFACE('',#601,2.5);
#100=CYLINDRICAL_SURFACE('',#605,2.5);
#101=CYLINDRICAL_SURFACE('',#606,2.5);
#102=CYLINDRICAL_SURFACE('',#610,2.5);
#103=CYLINDRICAL_SURFACE('',#612,12.7);
#104=CYLINDRICAL_SURFACE('',#624,2.5);
#105=CYLINDRICAL_SURFACE('',#628,2.5);
#106=CYLINDRICAL_SURFACE('',#629,2.5);
#107=CYLINDRICAL_SURFACE('',#632,2.5);
#108=CYLINDRICAL_SURFACE('',#634,23.28375);
#109=CYLINDRICAL_SURFACE('',#644,2.15);
#110=CYLINDRICAL_SURFACE('',#645,3.17712758430561);
#111=CYLINDRICAL_SURFACE('',#646,1.54999999999998);
#112=CYLINDRICAL_SURFACE('',#647,2.15);
#113=CYLINDRICAL_SURFACE('',#648,2.15);
#114=CYLINDRICAL_SURFACE('',#649,2.15);
#115=CYLINDRICAL_SURFACE('',#650,1.54999999999998);
#116=CYLINDRICAL_SURFACE('',#651,12.7);
#117=B_SPLINE_CURVE_WITH_KNOTS('',3,(#840,#841,#842,#843,#844,#845,#846,
#847,#848,#849,#850,#851,#852,#853),.UNSPECIFIED.,.F.,.F.,(4,2,2,2,2,2,
4),(-0.788293526676319,-0.787340553112191,-0.73685988999437,-0.686404705528234,
-0.588494206164962,-0.490986602609626,-0.39367027655543),.UNSPECIFIED.);
#118=B_SPLINE_CURVE_WITH_KNOTS('',3,(#856,#857,#858,#859,#860,#861,#862,
#863,#864,#865,#866,#867),.UNSPECIFIED.,.F.,.F.,(4,2,2,2,2,4),(0.,0.0975276468112029,
0.195126091543362,0.292873278710383,0.393125521087275,0.394259412541563),
 .UNSPECIFIED.);
#119=B_SPLINE_CURVE_WITH_KNOTS('',3,(#871,#872,#873,#874,#875,#876,#877,
#878,#879,#880,#881,#882,#883,#884,#885,#886,#887,#888,#889,#890,#891,#892,
#893,#894,#895,#896,#897,#898,#899,#900,#901,#902,#903,#904,#905,#906,#907,
#908,#909,#910,#911,#912,#913,#914,#915,#916),.UNSPECIFIED.,.F.,.F.,(4,
3,3,3,3,3,3,3,3,3,3,3,3,3,3,4),(0.,0.105785628918671,0.211567939412396,
0.3173471630418,0.423123531296327,0.528897275599549,0.634668627314368,0.740437817748477,
0.846226449528937,0.952008282196522,1.05778424199758,1.16355525463047,1.26934280710683,
1.3751179652297,1.48090342062928,1.57079850559134),.UNSPECIFIED.);
#120=B_SPLINE_CURVE_WITH_KNOTS('',3,(#920,#921,#922,#923,#924,#925,#926,
#927,#928,#929,#930,#931,#932,#933),.UNSPECIFIED.,.F.,.F.,(4,2,2,2,2,2,
4),(-0.000829014665021747,0.,0.0728758764173234,0.144323035761428,0.24890385414298,
0.340448499905448,0.426409438425188),.UNSPECIFIED.);
#121=B_SPLINE_CURVE_WITH_KNOTS('',3,(#940,#941,#942,#943,#944,#945,#946,
#947,#948,#949,#950,#951,#952,#953),.UNSPECIFIED.,.F.,.F.,(4,2,2,2,2,2,
4),(-0.849260698007095,-0.848439367508976,-0.777120082122382,-0.707093657183079,
-0.602805896328847,-0.510851860339221,-0.424219683754546),.UNSPECIFIED.);
#122=B_SPLINE_CURVE_WITH_KNOTS('',3,(#959,#960,#961,#962,#963,#964,#965,
#966,#967,#968,#969,#970,#971,#972),.UNSPECIFIED.,.F.,.F.,(4,2,2,2,2,2,
4),(-0.000952973564101972,0.,0.050480663113204,0.100935847575384,0.198846346930956,
0.296353950478642,0.393670276525239),.UNSPECIFIED.);
#123=B_SPLINE_CURVE_WITH_KNOTS('',3,(#981,#982,#983,#984,#985,#986,#987,
#988,#989,#990,#991,#992),.UNSPECIFIED.,.F.,.F.,(4,2,2,2,2,4),(-0.00113397734575524,
0.,0.100259836412641,0.198014427859267,0.295620265603898,0.393155300064682),
 .UNSPECIFIED.);
#124=B_SPLINE_CURVE_WITH_KNOTS('',3,(#1028,#1029,#1030,#1031,#1032,#1033,
#1034,#1035,#1036,#1037,#1038,#1039,#1040,#1041),.UNSPECIFIED.,.F.,.F.,
(4,2,2,2,2,2,4),(-0.788293526098323,-0.787340552535567,-0.736859889452746,
-0.686404705024061,-0.588494205733552,-0.490986602250669,-0.393670276268764),
 .UNSPECIFIED.);
#125=B_SPLINE_CURVE_WITH_KNOTS('',3,(#1043,#1044,#1045,#1046,#1047,#1048,
#1049,#1050,#1051,#1052,#1053,#1054),.UNSPECIFIED.,.F.,.F.,(4,2,2,2,2,4),
(-0.394259412540155,-0.393125521085711,-0.292873278710382,-0.195126091543362,
-0.0975276468112029,0.),.UNSPECIFIED.);
#126=B_SPLINE_CURVE_WITH_KNOTS('',3,(#1059,#1060,#1061,#1062,#1063,#1064,
#1065,#1066,#1067,#1068,#1069,#1070,#1071,#1072),.UNSPECIFIED.,.F.,.F.,
(4,2,2,2,2,2,4),(-0.000821330499016424,0.,0.0713192854212038,0.141345710400729,
0.245633471314799,0.337587507357185,0.424219683991563),.UNSPECIFIED.);
#127=B_SPLINE_CURVE_WITH_KNOTS('',3,(#1077,#1078,#1079,#1080,#1081,#1082,
#1083,#1084,#1085,#1086,#1087,#1088,#1089,#1090),.UNSPECIFIED.,.F.,.F.,
(4,2,2,2,2,2,4),(-0.853647891938045,-0.852818877272288,-0.779943000824012,
-0.708495841443504,-0.603915023008727,-0.512370377199685,-0.426409438636214),
 .UNSPECIFIED.);
#128=B_SPLINE_CURVE_WITH_KNOTS('',3,(#1094,#1095,#1096,#1097,#1098,#1099,
#1100,#1101,#1102,#1103,#1104,#1105,#1106,#1107,#1108,#1109,#1110,#1111,
#1112,#1113,#1114,#1115,#1116,#1117,#1118,#1119,#1120,#1121,#1122,#1123,
#1124,#1125,#1126,#1127,#1128,#1129,#1130,#1131,#1132,#1133,#1134,#1135,
#1136,#1137,#1138,#1139),.UNSPECIFIED.,.F.,.F.,(4,3,3,3,3,3,3,3,3,3,3,3,
3,3,3,4),(0.,0.105785628918668,0.21156793941239,0.317347163041788,0.423123531296302,
0.52889727559952,0.634668627314354,0.740437817748494,0.846226449528951,
0.952008282196539,1.05778424199763,1.16355525463051,1.26934280710687,1.37511796522974,
1.48090342062933,1.57079850559134),.UNSPECIFIED.);
#129=B_SPLINE_CURVE_WITH_KNOTS('',3,(#1142,#1143,#1144,#1145,#1146,#1147,
#1148,#1149,#1150,#1151,#1152,#1153,#1154,#1155),.UNSPECIFIED.,.F.,.F.,
(4,2,2,2,2,2,4),(-0.000952973562936655,0.,0.050480663087583,0.100935847519243,
0.198846346815595,0.296353950304304,0.393670276292016),.UNSPECIFIED.);
#130=B_SPLINE_CURVE_WITH_KNOTS('',3,(#1161,#1162,#1163,#1164,#1165,#1166,
#1167,#1168,#1169,#1170,#1171,#1172),.UNSPECIFIED.,.F.,.F.,(4,2,2,2,2,4),
(-0.00113397734601167,0.,0.100259836420405,0.198014427876062,0.295620265629712,
0.393155300099507),.UNSPECIFIED.);
#131=TOROIDAL_SURFACE('',#598,10.2,2.5);
#132=TOROIDAL_SURFACE('',#602,20.78375,2.5);
#133=TOROIDAL_SURFACE('',#607,10.2,2.5);
#134=TOROIDAL_SURFACE('',#621,10.2,2.5);
#135=TOROIDAL_SURFACE('',#625,20.78375,2.5);
#136=TOROIDAL_SURFACE('',#630,10.2,2.5);
#137=FACE_OUTER_BOUND('',#175,.T.);
#138=FACE_OUTER_BOUND('',#176,.T.);
#139=FACE_OUTER_BOUND('',#177,.T.);
#140=FACE_OUTER_BOUND('',#178,.T.);
#141=FACE_OUTER_BOUND('',#179,.T.);
#142=FACE_OUTER_BOUND('',#180,.T.);
#143=FACE_OUTER_BOUND('',#181,.T.);
#144=FACE_OUTER_BOUND('',#182,.T.);
#145=FACE_OUTER_BOUND('',#183,.T.);
#146=FACE_OUTER_BOUND('',#184,.T.);
#147=FACE_OUTER_BOUND('',#185,.T.);
#148=FACE_OUTER_BOUND('',#186,.T.);
#149=FACE_OUTER_BOUND('',#187,.T.);
#150=FACE_OUTER_BOUND('',#188,.T.);
#151=FACE_OUTER_BOUND('',#189,.T.);
#152=FACE_OUTER_BOUND('',#190,.T.);
#153=FACE_OUTER_BOUND('',#195,.T.);
#154=FACE_OUTER_BOUND('',#196,.T.);
#155=FACE_OUTER_BOUND('',#197,.T.);
#156=FACE_OUTER_BOUND('',#198,.T.);
#157=FACE_OUTER_BOUND('',#199,.T.);
#158=FACE_OUTER_BOUND('',#200,.T.);
#159=FACE_OUTER_BOUND('',#201,.T.);
#160=FACE_OUTER_BOUND('',#202,.T.);
#161=FACE_OUTER_BOUND('',#203,.T.);
#162=FACE_OUTER_BOUND('',#204,.T.);
#163=FACE_OUTER_BOUND('',#213,.T.);
#164=FACE_OUTER_BOUND('',#214,.T.);
#165=FACE_OUTER_BOUND('',#215,.T.);
#166=FACE_OUTER_BOUND('',#216,.T.);
#167=FACE_OUTER_BOUND('',#217,.T.);
#168=FACE_OUTER_BOUND('',#218,.T.);
#169=FACE_OUTER_BOUND('',#219,.T.);
#170=FACE_OUTER_BOUND('',#220,.T.);
#171=FACE_OUTER_BOUND('',#221,.T.);
#172=FACE_OUTER_BOUND('',#222,.T.);
#173=FACE_OUTER_BOUND('',#223,.T.);
#174=FACE_OUTER_BOUND('',#224,.T.);
#175=EDGE_LOOP('',(#373));
#176=EDGE_LOOP('',(#374));
#177=EDGE_LOOP('',(#375));
#178=EDGE_LOOP('',(#376));
#179=EDGE_LOOP('',(#377,#378,#379,#380));
#180=EDGE_LOOP('',(#381,#382,#383,#384));
#181=EDGE_LOOP('',(#385,#386,#387,#388));
#182=EDGE_LOOP('',(#389,#390,#391,#392));
#183=EDGE_LOOP('',(#393,#394,#395,#396));
#184=EDGE_LOOP('',(#397,#398,#399,#400));
#185=EDGE_LOOP('',(#401,#402,#403,#404));
#186=EDGE_LOOP('',(#405,#406,#407,#408));
#187=EDGE_LOOP('',(#409,#410,#411,#412));
#188=EDGE_LOOP('',(#413,#414,#415,#416));
#189=EDGE_LOOP('',(#417,#418,#419,#420));
#190=EDGE_LOOP('',(#421,#422,#423,#424,#425,#426,#427));
#191=EDGE_LOOP('',(#428));
#192=EDGE_LOOP('',(#429));
#193=EDGE_LOOP('',(#430));
#194=EDGE_LOOP('',(#431));
#195=EDGE_LOOP('',(#432,#433,#434,#435));
#196=EDGE_LOOP('',(#436,#437,#438,#439));
#197=EDGE_LOOP('',(#440,#441,#442,#443));
#198=EDGE_LOOP('',(#444,#445,#446,#447));
#199=EDGE_LOOP('',(#448,#449,#450,#451));
#200=EDGE_LOOP('',(#452,#453,#454,#455));
#201=EDGE_LOOP('',(#456,#457,#458,#459));
#202=EDGE_LOOP('',(#460,#461,#462,#463));
#203=EDGE_LOOP('',(#464,#465,#466,#467));
#204=EDGE_LOOP('',(#468,#469,#470,#471,#472,#473,#474));
#205=EDGE_LOOP('',(#475));
#206=EDGE_LOOP('',(#476));
#207=EDGE_LOOP('',(#477));
#208=EDGE_LOOP('',(#478));
#209=EDGE_LOOP('',(#479));
#210=EDGE_LOOP('',(#480));
#211=EDGE_LOOP('',(#481));
#212=EDGE_LOOP('',(#482));
#213=EDGE_LOOP('',(#483,#484,#485,#486));
#214=EDGE_LOOP('',(#487,#488,#489,#490));
#215=EDGE_LOOP('',(#491,#492,#493,#494));
#216=EDGE_LOOP('',(#495,#496,#497,#498));
#217=EDGE_LOOP('',(#499,#500,#501,#502));
#218=EDGE_LOOP('',(#503,#504,#505,#506));
#219=EDGE_LOOP('',(#507,#508,#509,#510));
#220=EDGE_LOOP('',(#511,#512,#513,#514));
#221=EDGE_LOOP('',(#515,#516,#517,#518));
#222=EDGE_LOOP('',(#519));
#223=EDGE_LOOP('',(#520));
#224=EDGE_LOOP('',(#521,#522,#523,#524));
#225=CIRCLE('',#591,2.15);
#226=CIRCLE('',#593,2.15);
#227=CIRCLE('',#595,2.15);
#228=CIRCLE('',#597,2.15);
#229=CIRCLE('',#599,10.2);
#230=CIRCLE('',#600,12.7);
#231=CIRCLE('',#603,23.28375);
#232=CIRCLE('',#604,20.78375);
#233=CIRCLE('',#608,12.7);
#234=CIRCLE('',#609,10.2);
#235=CIRCLE('',#613,12.7);
#236=CIRCLE('',#617,3.17712758430561);
#237=CIRCLE('',#619,1.54999999999998);
#238=CIRCLE('',#620,1.54999999999998);
#239=CIRCLE('',#622,10.2);
#240=CIRCLE('',#623,12.7);
#241=CIRCLE('',#626,20.78375);
#242=CIRCLE('',#627,23.28375);
#243=CIRCLE('',#631,10.2);
#244=CIRCLE('',#636,2.15);
#245=CIRCLE('',#637,3.17712758430561);
#246=CIRCLE('',#639,1.54999999999998);
#247=CIRCLE('',#640,2.15);
#248=CIRCLE('',#641,2.15);
#249=CIRCLE('',#642,2.15);
#250=CIRCLE('',#643,1.54999999999998);
#251=VERTEX_POINT('',#824);
#252=VERTEX_POINT('',#827);
#253=VERTEX_POINT('',#830);
#254=VERTEX_POINT('',#833);
#255=VERTEX_POINT('',#836);
#256=VERTEX_POINT('',#837);
#257=VERTEX_POINT('',#839);
#258=VERTEX_POINT('',#854);
#259=VERTEX_POINT('',#869);
#260=VERTEX_POINT('',#870);
#261=VERTEX_POINT('',#917);
#262=VERTEX_POINT('',#919);
#263=VERTEX_POINT('',#936);
#264=VERTEX_POINT('',#938);
#265=VERTEX_POINT('',#955);
#266=VERTEX_POINT('',#957);
#267=VERTEX_POINT('',#977);
#268=VERTEX_POINT('',#979);
#269=VERTEX_POINT('',#997);
#270=VERTEX_POINT('',#999);
#271=VERTEX_POINT('',#1003);
#272=VERTEX_POINT('',#1007);
#273=VERTEX_POINT('',#1011);
#274=VERTEX_POINT('',#1015);
#275=VERTEX_POINT('',#1017);
#276=VERTEX_POINT('',#1019);
#277=VERTEX_POINT('',#1021);
#278=VERTEX_POINT('',#1024);
#279=VERTEX_POINT('',#1025);
#280=VERTEX_POINT('',#1027);
#281=VERTEX_POINT('',#1056);
#282=VERTEX_POINT('',#1058);
#283=VERTEX_POINT('',#1075);
#284=VERTEX_POINT('',#1093);
#285=VERTEX_POINT('',#1140);
#286=VERTEX_POINT('',#1159);
#287=VERTEX_POINT('',#1180);
#288=VERTEX_POINT('',#1182);
#289=VERTEX_POINT('',#1184);
#290=VERTEX_POINT('',#1186);
#291=VERTEX_POINT('',#1188);
#292=VERTEX_POINT('',#1190);
#293=VERTEX_POINT('',#1192);
#294=VERTEX_POINT('',#1194);
#295=VERTEX_POINT('',#1231);
#296=VERTEX_POINT('',#1234);
#297=EDGE_CURVE('',#251,#251,#225,.T.);
#298=EDGE_CURVE('',#252,#252,#226,.T.);
#299=EDGE_CURVE('',#253,#253,#227,.T.);
#300=EDGE_CURVE('',#254,#254,#228,.T.);
#301=EDGE_CURVE('',#255,#256,#229,.T.);
#302=EDGE_CURVE('',#256,#257,#117,.T.);
#303=EDGE_CURVE('',#257,#258,#230,.T.);
#304=EDGE_CURVE('',#258,#255,#118,.T.);
#305=EDGE_CURVE('',#259,#260,#119,.T.);
#306=EDGE_CURVE('',#260,#261,#35,.T.);
#307=EDGE_CURVE('',#261,#262,#120,.T.);
#308=EDGE_CURVE('',#262,#259,#36,.T.);
#309=EDGE_CURVE('',#263,#262,#231,.T.);
#310=EDGE_CURVE('',#261,#264,#232,.T.);
#311=EDGE_CURVE('',#264,#263,#121,.T.);
#312=EDGE_CURVE('',#265,#263,#37,.T.);
#313=EDGE_CURVE('',#264,#266,#38,.T.);
#314=EDGE_CURVE('',#266,#265,#122,.T.);
#315=EDGE_CURVE('',#256,#260,#39,.T.);
#316=EDGE_CURVE('',#259,#257,#40,.T.);
#317=EDGE_CURVE('',#267,#265,#233,.T.);
#318=EDGE_CURVE('',#266,#268,#234,.T.);
#319=EDGE_CURVE('',#268,#267,#123,.T.);
#320=EDGE_CURVE('',#268,#255,#41,.T.);
#321=EDGE_CURVE('',#258,#267,#42,.T.);
#322=EDGE_CURVE('',#258,#269,#43,.T.);
#323=EDGE_CURVE('',#270,#269,#44,.T.);
#324=EDGE_CURVE('',#267,#270,#45,.T.);
#325=EDGE_CURVE('',#257,#271,#46,.T.);
#326=EDGE_CURVE('',#269,#271,#235,.T.);
#327=EDGE_CURVE('',#259,#272,#47,.T.);
#328=EDGE_CURVE('',#271,#272,#48,.T.);
#329=EDGE_CURVE('',#262,#273,#49,.T.);
#330=EDGE_CURVE('',#272,#273,#50,.T.);
#331=EDGE_CURVE('',#274,#274,#236,.T.);
#332=EDGE_CURVE('',#275,#275,#19,.T.);
#333=EDGE_CURVE('',#276,#276,#237,.T.);
#334=EDGE_CURVE('',#277,#277,#238,.T.);
#335=EDGE_CURVE('',#278,#279,#239,.T.);
#336=EDGE_CURVE('',#279,#280,#124,.T.);
#337=EDGE_CURVE('',#280,#270,#240,.T.);
#338=EDGE_CURVE('',#278,#270,#125,.T.);
#339=EDGE_CURVE('',#279,#281,#51,.T.);
#340=EDGE_CURVE('',#281,#282,#126,.T.);
#341=EDGE_CURVE('',#282,#280,#52,.T.);
#342=EDGE_CURVE('',#281,#283,#241,.T.);
#343=EDGE_CURVE('',#283,#273,#127,.T.);
#344=EDGE_CURVE('',#273,#282,#242,.T.);
#345=EDGE_CURVE('',#272,#284,#128,.T.);
#346=EDGE_CURVE('',#284,#285,#53,.T.);
#347=EDGE_CURVE('',#285,#271,#129,.T.);
#348=EDGE_CURVE('',#283,#284,#54,.T.);
#349=EDGE_CURVE('',#285,#286,#243,.T.);
#350=EDGE_CURVE('',#286,#269,#130,.T.);
#351=EDGE_CURVE('',#286,#278,#55,.T.);
#352=EDGE_CURVE('',#265,#280,#56,.T.);
#353=EDGE_CURVE('',#263,#282,#57,.T.);
#354=EDGE_CURVE('',#287,#287,#244,.T.);
#355=EDGE_CURVE('',#288,#288,#245,.T.);
#356=EDGE_CURVE('',#289,#289,#20,.T.);
#357=EDGE_CURVE('',#290,#290,#246,.T.);
#358=EDGE_CURVE('',#291,#291,#247,.T.);
#359=EDGE_CURVE('',#292,#292,#248,.T.);
#360=EDGE_CURVE('',#293,#293,#249,.T.);
#361=EDGE_CURVE('',#294,#294,#250,.T.);
#362=EDGE_CURVE('',#287,#252,#58,.T.);
#363=EDGE_CURVE('',#288,#274,#59,.T.);
#364=EDGE_CURVE('',#289,#275,#60,.T.);
#365=EDGE_CURVE('',#290,#276,#61,.T.);
#366=EDGE_CURVE('',#291,#253,#62,.T.);
#367=EDGE_CURVE('',#292,#254,#63,.T.);
#368=EDGE_CURVE('',#293,#251,#64,.T.);
#369=EDGE_CURVE('',#294,#277,#65,.T.);
#370=EDGE_CURVE('',#295,#295,#21,.T.);
#371=EDGE_CURVE('',#296,#296,#22,.T.);
#372=EDGE_CURVE('',#295,#296,#66,.T.);
#373=ORIENTED_EDGE('',*,*,#297,.F.);
#374=ORIENTED_EDGE('',*,*,#298,.F.);
#375=ORIENTED_EDGE('',*,*,#299,.F.);
#376=ORIENTED_EDGE('',*,*,#300,.F.);
#377=ORIENTED_EDGE('',*,*,#301,.T.);
#378=ORIENTED_EDGE('',*,*,#302,.T.);
#379=ORIENTED_EDGE('',*,*,#303,.T.);
#380=ORIENTED_EDGE('',*,*,#304,.T.);
#381=ORIENTED_EDGE('',*,*,#305,.T.);
#382=ORIENTED_EDGE('',*,*,#306,.T.);
#383=ORIENTED_EDGE('',*,*,#307,.T.);
#384=ORIENTED_EDGE('',*,*,#308,.T.);
#385=ORIENTED_EDGE('',*,*,#309,.T.);
#386=ORIENTED_EDGE('',*,*,#307,.F.);
#387=ORIENTED_EDGE('',*,*,#310,.T.);
#388=ORIENTED_EDGE('',*,*,#311,.T.);
#389=ORIENTED_EDGE('',*,*,#312,.T.);
#390=ORIENTED_EDGE('',*,*,#311,.F.);
#391=ORIENTED_EDGE('',*,*,#313,.T.);
#392=ORIENTED_EDGE('',*,*,#314,.T.);
#393=ORIENTED_EDGE('',*,*,#315,.T.);
#394=ORIENTED_EDGE('',*,*,#305,.F.);
#395=ORIENTED_EDGE('',*,*,#316,.T.);
#396=ORIENTED_EDGE('',*,*,#302,.F.);
#397=ORIENTED_EDGE('',*,*,#317,.T.);
#398=ORIENTED_EDGE('',*,*,#314,.F.);
#399=ORIENTED_EDGE('',*,*,#318,.T.);
#400=ORIENTED_EDGE('',*,*,#319,.T.);
#401=ORIENTED_EDGE('',*,*,#320,.T.);
#402=ORIENTED_EDGE('',*,*,#304,.F.);
#403=ORIENTED_EDGE('',*,*,#321,.T.);
#404=ORIENTED_EDGE('',*,*,#319,.F.);
#405=ORIENTED_EDGE('',*,*,#321,.F.);
#406=ORIENTED_EDGE('',*,*,#322,.T.);
#407=ORIENTED_EDGE('',*,*,#323,.F.);
#408=ORIENTED_EDGE('',*,*,#324,.F.);
#409=ORIENTED_EDGE('',*,*,#303,.F.);
#410=ORIENTED_EDGE('',*,*,#325,.T.);
#411=ORIENTED_EDGE('',*,*,#326,.F.);
#412=ORIENTED_EDGE('',*,*,#322,.F.);
#413=ORIENTED_EDGE('',*,*,#316,.F.);
#414=ORIENTED_EDGE('',*,*,#327,.T.);
#415=ORIENTED_EDGE('',*,*,#328,.F.);
#416=ORIENTED_EDGE('',*,*,#325,.F.);
#417=ORIENTED_EDGE('',*,*,#308,.F.);
#418=ORIENTED_EDGE('',*,*,#329,.T.);
#419=ORIENTED_EDGE('',*,*,#330,.F.);
#420=ORIENTED_EDGE('',*,*,#327,.F.);
#421=ORIENTED_EDGE('',*,*,#306,.F.);
#422=ORIENTED_EDGE('',*,*,#315,.F.);
#423=ORIENTED_EDGE('',*,*,#301,.F.);
#424=ORIENTED_EDGE('',*,*,#320,.F.);
#425=ORIENTED_EDGE('',*,*,#318,.F.);
#426=ORIENTED_EDGE('',*,*,#313,.F.);
#427=ORIENTED_EDGE('',*,*,#310,.F.);
#428=ORIENTED_EDGE('',*,*,#331,.F.);
#429=ORIENTED_EDGE('',*,*,#332,.F.);
#430=ORIENTED_EDGE('',*,*,#333,.F.);
#431=ORIENTED_EDGE('',*,*,#334,.F.);
#432=ORIENTED_EDGE('',*,*,#335,.T.);
#433=ORIENTED_EDGE('',*,*,#336,.T.);
#434=ORIENTED_EDGE('',*,*,#337,.T.);
#435=ORIENTED_EDGE('',*,*,#338,.F.);
#436=ORIENTED_EDGE('',*,*,#339,.T.);
#437=ORIENTED_EDGE('',*,*,#340,.T.);
#438=ORIENTED_EDGE('',*,*,#341,.T.);
#439=ORIENTED_EDGE('',*,*,#336,.F.);
#440=ORIENTED_EDGE('',*,*,#342,.T.);
#441=ORIENTED_EDGE('',*,*,#343,.T.);
#442=ORIENTED_EDGE('',*,*,#344,.T.);
#443=ORIENTED_EDGE('',*,*,#340,.F.);
#444=ORIENTED_EDGE('',*,*,#328,.T.);
#445=ORIENTED_EDGE('',*,*,#345,.T.);
#446=ORIENTED_EDGE('',*,*,#346,.T.);
#447=ORIENTED_EDGE('',*,*,#347,.T.);
#448=ORIENTED_EDGE('',*,*,#348,.T.);
#449=ORIENTED_EDGE('',*,*,#345,.F.);
#450=ORIENTED_EDGE('',*,*,#330,.T.);
#451=ORIENTED_EDGE('',*,*,#343,.F.);
#452=ORIENTED_EDGE('',*,*,#326,.T.);
#453=ORIENTED_EDGE('',*,*,#347,.F.);
#454=ORIENTED_EDGE('',*,*,#349,.T.);
#455=ORIENTED_EDGE('',*,*,#350,.T.);
#456=ORIENTED_EDGE('',*,*,#323,.T.);
#457=ORIENTED_EDGE('',*,*,#350,.F.);
#458=ORIENTED_EDGE('',*,*,#351,.T.);
#459=ORIENTED_EDGE('',*,*,#338,.T.);
#460=ORIENTED_EDGE('',*,*,#312,.F.);
#461=ORIENTED_EDGE('',*,*,#352,.T.);
#462=ORIENTED_EDGE('',*,*,#341,.F.);
#463=ORIENTED_EDGE('',*,*,#353,.F.);
#464=ORIENTED_EDGE('',*,*,#309,.F.);
#465=ORIENTED_EDGE('',*,*,#353,.T.);
#466=ORIENTED_EDGE('',*,*,#344,.F.);
#467=ORIENTED_EDGE('',*,*,#329,.F.);
#468=ORIENTED_EDGE('',*,*,#346,.F.);
#469=ORIENTED_EDGE('',*,*,#348,.F.);
#470=ORIENTED_EDGE('',*,*,#342,.F.);
#471=ORIENTED_EDGE('',*,*,#339,.F.);
#472=ORIENTED_EDGE('',*,*,#335,.F.);
#473=ORIENTED_EDGE('',*,*,#351,.F.);
#474=ORIENTED_EDGE('',*,*,#349,.F.);
#475=ORIENTED_EDGE('',*,*,#354,.T.);
#476=ORIENTED_EDGE('',*,*,#355,.T.);
#477=ORIENTED_EDGE('',*,*,#356,.T.);
#478=ORIENTED_EDGE('',*,*,#357,.T.);
#479=ORIENTED_EDGE('',*,*,#358,.T.);
#480=ORIENTED_EDGE('',*,*,#359,.T.);
#481=ORIENTED_EDGE('',*,*,#360,.T.);
#482=ORIENTED_EDGE('',*,*,#361,.T.);
#483=ORIENTED_EDGE('',*,*,#354,.F.);
#484=ORIENTED_EDGE('',*,*,#362,.T.);
#485=ORIENTED_EDGE('',*,*,#298,.T.);
#486=ORIENTED_EDGE('',*,*,#362,.F.);
#487=ORIENTED_EDGE('',*,*,#355,.F.);
#488=ORIENTED_EDGE('',*,*,#363,.T.);
#489=ORIENTED_EDGE('',*,*,#331,.T.);
#490=ORIENTED_EDGE('',*,*,#363,.F.);
#491=ORIENTED_EDGE('',*,*,#356,.F.);
#492=ORIENTED_EDGE('',*,*,#364,.T.);
#493=ORIENTED_EDGE('',*,*,#332,.T.);
#494=ORIENTED_EDGE('',*,*,#364,.F.);
#495=ORIENTED_EDGE('',*,*,#357,.F.);
#496=ORIENTED_EDGE('',*,*,#365,.T.);
#497=ORIENTED_EDGE('',*,*,#333,.T.);
#498=ORIENTED_EDGE('',*,*,#365,.F.);
#499=ORIENTED_EDGE('',*,*,#358,.F.);
#500=ORIENTED_EDGE('',*,*,#366,.T.);
#501=ORIENTED_EDGE('',*,*,#299,.T.);
#502=ORIENTED_EDGE('',*,*,#366,.F.);
#503=ORIENTED_EDGE('',*,*,#359,.F.);
#504=ORIENTED_EDGE('',*,*,#367,.T.);
#505=ORIENTED_EDGE('',*,*,#300,.T.);
#506=ORIENTED_EDGE('',*,*,#367,.F.);
#507=ORIENTED_EDGE('',*,*,#360,.F.);
#508=ORIENTED_EDGE('',*,*,#368,.T.);
#509=ORIENTED_EDGE('',*,*,#297,.T.);
#510=ORIENTED_EDGE('',*,*,#368,.F.);
#511=ORIENTED_EDGE('',*,*,#361,.F.);
#512=ORIENTED_EDGE('',*,*,#369,.T.);
#513=ORIENTED_EDGE('',*,*,#334,.T.);
#514=ORIENTED_EDGE('',*,*,#369,.F.);
#515=ORIENTED_EDGE('',*,*,#317,.F.);
#516=ORIENTED_EDGE('',*,*,#324,.T.);
#517=ORIENTED_EDGE('',*,*,#337,.F.);
#518=ORIENTED_EDGE('',*,*,#352,.F.);
#519=ORIENTED_EDGE('',*,*,#370,.F.);
#520=ORIENTED_EDGE('',*,*,#371,.F.);
#521=ORIENTED_EDGE('',*,*,#370,.T.);
#522=ORIENTED_EDGE('',*,*,#372,.T.);
#523=ORIENTED_EDGE('',*,*,#371,.T.);
#524=ORIENTED_EDGE('',*,*,#372,.F.);
#525=PLANE('',#590);
#526=PLANE('',#592);
#527=PLANE('',#594);
#528=PLANE('',#596);
#529=PLANE('',#611);
#530=PLANE('',#614);
#531=PLANE('',#615);
#532=PLANE('',#616);
#533=PLANE('',#633);
#534=PLANE('',#635);
#535=PLANE('',#652);
#536=PLANE('',#654);
#537=ADVANCED_FACE('',(#137),#525,.T.);
#538=ADVANCED_FACE('',(#138),#526,.T.);
#539=ADVANCED_FACE('',(#139),#527,.T.);
#540=ADVANCED_FACE('',(#140),#528,.T.);
#541=ADVANCED_FACE('',(#141),#131,.T.);
#542=ADVANCED_FACE('',(#142),#99,.T.);
#543=ADVANCED_FACE('',(#143),#132,.T.);
#544=ADVANCED_FACE('',(#144),#100,.T.);
#545=ADVANCED_FACE('',(#145),#101,.T.);
#546=ADVANCED_FACE('',(#146),#133,.T.);
#547=ADVANCED_FACE('',(#147),#102,.T.);
#548=ADVANCED_FACE('',(#148),#529,.T.);
#549=ADVANCED_FACE('',(#149),#103,.T.);
#550=ADVANCED_FACE('',(#150),#530,.T.);
#551=ADVANCED_FACE('',(#151),#531,.T.);
#552=ADVANCED_FACE('',(#152,#23,#24,#25,#26),#532,.F.);
#553=ADVANCED_FACE('',(#153),#134,.T.);
#554=ADVANCED_FACE('',(#154),#104,.T.);
#555=ADVANCED_FACE('',(#155),#135,.T.);
#556=ADVANCED_FACE('',(#156),#105,.T.);
#557=ADVANCED_FACE('',(#157),#106,.T.);
#558=ADVANCED_FACE('',(#158),#136,.T.);
#559=ADVANCED_FACE('',(#159),#107,.T.);
#560=ADVANCED_FACE('',(#160),#533,.T.);
#561=ADVANCED_FACE('',(#161),#108,.T.);
#562=ADVANCED_FACE('',(#162,#27,#28,#29,#30,#31,#32,#33,#34),#534,.T.);
#563=ADVANCED_FACE('',(#163),#109,.F.);
#564=ADVANCED_FACE('',(#164),#110,.F.);
#565=ADVANCED_FACE('',(#165),#17,.T.);
#566=ADVANCED_FACE('',(#166),#111,.F.);
#567=ADVANCED_FACE('',(#167),#112,.F.);
#568=ADVANCED_FACE('',(#168),#113,.F.);
#569=ADVANCED_FACE('',(#169),#114,.F.);
#570=ADVANCED_FACE('',(#170),#115,.F.);
#571=ADVANCED_FACE('',(#171),#116,.T.);
#572=ADVANCED_FACE('',(#172),#535,.T.);
#573=ADVANCED_FACE('',(#173),#536,.F.);
#574=ADVANCED_FACE('',(#174),#18,.F.);
#575=CLOSED_SHELL('',(#537,#538,#539,#540,#541,#542,#543,#544,#545,#546,
#547,#548,#549,#550,#551,#552,#553,#554,#555,#556,#557,#558,#559,#560,#561,
#562,#563,#564,#565,#566,#567,#568,#569,#570,#571));
#576=CLOSED_SHELL('',(#572,#573,#574));
#577=DERIVED_UNIT_ELEMENT(#579,1.);
#578=DERIVED_UNIT_ELEMENT(#1260,-3.);
#579=(
MASS_UNIT()
NAMED_UNIT(*)
SI_UNIT(.KILO.,.GRAM.)
);
#580=DERIVED_UNIT((#577,#578));
#581=MEASURE_REPRESENTATION_ITEM('density measure',
POSITIVE_RATIO_MEASURE(7850.),#580);
#582=PROPERTY_DEFINITION_REPRESENTATION(#587,#584);
#583=PROPERTY_DEFINITION_REPRESENTATION(#588,#585);
#584=REPRESENTATION('material name',(#586),#1257);
#585=REPRESENTATION('density',(#581),#1257);
#586=DESCRIPTIVE_REPRESENTATION_ITEM('Steel','Steel');
#587=PROPERTY_DEFINITION('material property','material name',#1267);
#588=PROPERTY_DEFINITION('material property','density of part',#1267);
#589=AXIS2_PLACEMENT_3D('',#822,#656,#657);
#590=AXIS2_PLACEMENT_3D('',#823,#658,#659);
#591=AXIS2_PLACEMENT_3D('',#825,#660,#661);
#592=AXIS2_PLACEMENT_3D('',#826,#662,#663);
#593=AXIS2_PLACEMENT_3D('',#828,#664,#665);
#594=AXIS2_PLACEMENT_3D('',#829,#666,#667);
#595=AXIS2_PLACEMENT_3D('',#831,#668,#669);
#596=AXIS2_PLACEMENT_3D('',#832,#670,#671);
#597=AXIS2_PLACEMENT_3D('',#834,#672,#673);
#598=AXIS2_PLACEMENT_3D('',#835,#674,#675);
#599=AXIS2_PLACEMENT_3D('',#838,#676,#677);
#600=AXIS2_PLACEMENT_3D('',#855,#678,#679);
#601=AXIS2_PLACEMENT_3D('',#868,#680,#681);
#602=AXIS2_PLACEMENT_3D('',#935,#684,#685);
#603=AXIS2_PLACEMENT_3D('',#937,#686,#687);
#604=AXIS2_PLACEMENT_3D('',#939,#688,#689);
#605=AXIS2_PLACEMENT_3D('',#954,#690,#691);
#606=AXIS2_PLACEMENT_3D('',#973,#694,#695);
#607=AXIS2_PLACEMENT_3D('',#976,#698,#699);
#608=AXIS2_PLACEMENT_3D('',#978,#700,#701);
#609=AXIS2_PLACEMENT_3D('',#980,#702,#703);
#610=AXIS2_PLACEMENT_3D('',#993,#704,#705);
#611=AXIS2_PLACEMENT_3D('',#996,#708,#709);
#612=AXIS2_PLACEMENT_3D('',#1002,#713,#714);
#613=AXIS2_PLACEMENT_3D('',#1005,#716,#717);
#614=AXIS2_PLACEMENT_3D('',#1006,#718,#719);
#615=AXIS2_PLACEMENT_3D('',#1010,#722,#723);
#616=AXIS2_PLACEMENT_3D('',#1014,#726,#727);
#617=AXIS2_PLACEMENT_3D('',#1016,#728,#729);
#618=AXIS2_PLACEMENT_3D('',#1018,#730,#731);
#619=AXIS2_PLACEMENT_3D('',#1020,#732,#733);
#620=AXIS2_PLACEMENT_3D('',#1022,#734,#735);
#621=AXIS2_PLACEMENT_3D('',#1023,#736,#737);
#622=AXIS2_PLACEMENT_3D('',#1026,#738,#739);
#623=AXIS2_PLACEMENT_3D('',#1042,#740,#741);
#624=AXIS2_PLACEMENT_3D('',#1055,#742,#743);
#625=AXIS2_PLACEMENT_3D('',#1074,#746,#747);
#626=AXIS2_PLACEMENT_3D('',#1076,#748,#749);
#627=AXIS2_PLACEMENT_3D('',#1091,#750,#751);
#628=AXIS2_PLACEMENT_3D('',#1092,#752,#753);
#629=AXIS2_PLACEMENT_3D('',#1156,#755,#756);
#630=AXIS2_PLACEMENT_3D('',#1158,#758,#759);
#631=AXIS2_PLACEMENT_3D('',#1160,#760,#761);
#632=AXIS2_PLACEMENT_3D('',#1173,#762,#763);
#633=AXIS2_PLACEMENT_3D('',#1175,#765,#766);
#634=AXIS2_PLACEMENT_3D('',#1178,#769,#770);
#635=AXIS2_PLACEMENT_3D('',#1179,#771,#772);
#636=AXIS2_PLACEMENT_3D('',#1181,#773,#774);
#637=AXIS2_PLACEMENT_3D('',#1183,#775,#776);
#638=AXIS2_PLACEMENT_3D('',#1185,#777,#778);
#639=AXIS2_PLACEMENT_3D('',#1187,#779,#780);
#640=AXIS2_PLACEMENT_3D('',#1189,#781,#782);
#641=AXIS2_PLACEMENT_3D('',#1191,#783,#784);
#642=AXIS2_PLACEMENT_3D('',#1193,#785,#786);
#643=AXIS2_PLACEMENT_3D('',#1195,#787,#788);
#644=AXIS2_PLACEMENT_3D('',#1196,#789,#790);
#645=AXIS2_PLACEMENT_3D('',#1198,#792,#793);
#646=AXIS2_PLACEMENT_3D('',#1219,#796,#797);
#647=AXIS2_PLACEMENT_3D('',#1221,#799,#800);
#648=AXIS2_PLACEMENT_3D('',#1223,#802,#803);
#649=AXIS2_PLACEMENT_3D('',#1225,#805,#806);
#650=AXIS2_PLACEMENT_3D('',#1227,#808,#809);
#651=AXIS2_PLACEMENT_3D('',#1229,#811,#812);
#652=AXIS2_PLACEMENT_3D('',#1230,#813,#814);
#653=AXIS2_PLACEMENT_3D('',#1232,#815,#816);
#654=AXIS2_PLACEMENT_3D('',#1233,#817,#818);
#655=AXIS2_PLACEMENT_3D('',#1235,#819,#820);
#656=DIRECTION('axis',(0.,0.,1.));
#657=DIRECTION('refdir',(1.,0.,0.));
#658=DIRECTION('center_axis',(0.,0.,1.));
#659=DIRECTION('ref_axis',(1.,0.,0.));
#660=DIRECTION('center_axis',(0.,0.,-1.));
#661=DIRECTION('ref_axis',(1.,0.,0.));
#662=DIRECTION('center_axis',(0.,0.,1.));
#663=DIRECTION('ref_axis',(1.,0.,0.));
#664=DIRECTION('center_axis',(0.,0.,-1.));
#665=DIRECTION('ref_axis',(1.,0.,0.));
#666=DIRECTION('center_axis',(0.,0.,1.));
#667=DIRECTION('ref_axis',(1.,0.,0.));
#668=DIRECTION('center_axis',(0.,0.,-1.));
#669=DIRECTION('ref_axis',(1.,0.,0.));
#670=DIRECTION('center_axis',(0.,0.,1.));
#671=DIRECTION('ref_axis',(1.,0.,0.));
#672=DIRECTION('center_axis',(0.,0.,-1.));
#673=DIRECTION('ref_axis',(1.,0.,0.));
#674=DIRECTION('center_axis',(0.,0.,1.));
#675=DIRECTION('ref_axis',(1.,0.,0.));
#676=DIRECTION('center_axis',(0.,0.,1.));
#677=DIRECTION('ref_axis',(0.599259398617914,0.800554915772863,0.));
#678=DIRECTION('center_axis',(0.,0.,-1.));
#679=DIRECTION('ref_axis',(0.599259398617914,0.800554915772863,0.));
#680=DIRECTION('center_axis',(-0.999986310115012,-0.00523255029244777,0.));
#681=DIRECTION('ref_axis',(-0.00369997179468927,0.707097100976042,-0.707106781186545));
#682=DIRECTION('',(-0.999986310115012,-0.00523255029244777,0.));
#683=DIRECTION('',(0.999986310115012,0.00523255029244777,0.));
#684=DIRECTION('center_axis',(0.,0.,1.));
#685=DIRECTION('ref_axis',(-0.999906622537576,0.0136655115344104,0.));
#686=DIRECTION('center_axis',(0.,0.,-1.));
#687=DIRECTION('ref_axis',(-0.999922184897905,0.0124749408415424,0.));
#688=DIRECTION('center_axis',(0.,0.,1.));
#689=DIRECTION('ref_axis',(-0.999922184897905,0.0124749408415424,0.));
#690=DIRECTION('center_axis',(-1.,-7.50254495988593E-16,0.));
#691=DIRECTION('ref_axis',(0.,-0.707106781186547,-0.707106781186547));
#692=DIRECTION('',(-1.,-7.50254495988593E-16,0.));
#693=DIRECTION('',(1.,7.50254495988593E-16,0.));
#694=DIRECTION('center_axis',(1.,0.,0.));
#695=DIRECTION('ref_axis',(0.,0.707106781186547,-0.707106781186547));
#696=DIRECTION('',(-1.,0.,0.));
#697=DIRECTION('',(1.,0.,0.));
#698=DIRECTION('center_axis',(0.,0.,1.));
#699=DIRECTION('ref_axis',(1.,0.,0.));
#700=DIRECTION('center_axis',(0.,0.,-1.));
#701=DIRECTION('ref_axis',(0.599259398617914,-0.800554915772863,0.));
#702=DIRECTION('center_axis',(0.,0.,1.));
#703=DIRECTION('ref_axis',(0.599259398617914,-0.800554915772863,0.));
#704=DIRECTION('center_axis',(0.,-1.,0.));
#705=DIRECTION('ref_axis',(0.707106781186547,0.,-0.707106781186547));
#706=DIRECTION('',(0.,1.,0.));
#707=DIRECTION('',(0.,-1.,0.));
#708=DIRECTION('center_axis',(1.,0.,0.));
#709=DIRECTION('ref_axis',(0.,1.,0.));
#710=DIRECTION('',(0.,0.,1.));
#711=DIRECTION('',(0.,1.,0.));
#712=DIRECTION('',(0.,0.,1.));
#713=DIRECTION('center_axis',(0.,0.,1.));
#714=DIRECTION('ref_axis',(1.,0.,0.));
#715=DIRECTION('',(0.,0.,1.));
#716=DIRECTION('center_axis',(0.,0.,1.));
#717=DIRECTION('ref_axis',(0.599259398617914,0.800554915772863,0.));
#718=DIRECTION('center_axis',(0.,1.,0.));
#719=DIRECTION('ref_axis',(-1.,0.,0.));
#720=DIRECTION('',(0.,0.,1.));
#721=DIRECTION('',(-1.,0.,0.));
#722=DIRECTION('center_axis',(-0.00523255029244777,0.999986310115012,0.));
#723=DIRECTION('ref_axis',(-0.999986310115012,-0.00523255029244777,0.));
#724=DIRECTION('',(0.,0.,1.));
#725=DIRECTION('',(-0.999986310115012,-0.00523255029244777,0.));
#726=DIRECTION('center_axis',(0.,0.,1.));
#727=DIRECTION('ref_axis',(1.,0.,0.));
#728=DIRECTION('center_axis',(0.,0.,-1.));
#729=DIRECTION('ref_axis',(1.,0.,0.));
#730=DIRECTION('center_axis',(0.,0.,-1.));
#731=DIRECTION('ref_axis',(-1.,0.,0.));
#732=DIRECTION('center_axis',(0.,0.,-1.));
#733=DIRECTION('ref_axis',(1.,0.,0.));
#734=DIRECTION('center_axis',(0.,0.,-1.));
#735=DIRECTION('ref_axis',(1.,0.,0.));
#736=DIRECTION('center_axis',(0.,0.,1.));
#737=DIRECTION('ref_axis',(1.,0.,0.));
#738=DIRECTION('center_axis',(0.,0.,-1.));
#739=DIRECTION('ref_axis',(0.599259398617914,-0.800554915772863,0.));
#740=DIRECTION('center_axis',(0.,0.,1.));
#741=DIRECTION('ref_axis',(0.599259398617914,-0.800554915772863,0.));
#742=DIRECTION('center_axis',(1.,7.50254495988593E-16,0.));
#743=DIRECTION('ref_axis',(0.,-0.707106781186547,0.707106781186547));
#744=DIRECTION('',(-1.,-7.50254495988593E-16,0.));
#745=DIRECTION('',(1.,7.50254495988593E-16,0.));
#746=DIRECTION('center_axis',(0.,0.,1.));
#747=DIRECTION('ref_axis',(-0.999906622537576,0.0136655115344085,0.));
#748=DIRECTION('center_axis',(0.,0.,-1.));
#749=DIRECTION('ref_axis',(-0.999922184897905,0.0124749408415424,0.));
#750=DIRECTION('center_axis',(0.,0.,1.));
#751=DIRECTION('ref_axis',(-0.999922184897905,0.0124749408415424,0.));
#752=DIRECTION('center_axis',(-1.,0.,0.));
#753=DIRECTION('ref_axis',(0.,0.707106781186547,0.707106781186547));
#754=DIRECTION('',(1.,0.,0.));
#755=DIRECTION('center_axis',(-0.999986310115012,-0.00523255029244777,0.));
#756=DIRECTION('ref_axis',(-0.00369997179468927,0.707097100976042,0.707106781186545));
#757=DIRECTION('',(0.999986310115012,0.00523255029244777,0.));
#758=DIRECTION('center_axis',(0.,0.,1.));
#759=DIRECTION('ref_axis',(1.,0.,0.));
#760=DIRECTION('center_axis',(0.,0.,-1.));
#761=DIRECTION('ref_axis',(0.599259398617914,0.800554915772863,0.));
#762=DIRECTION('center_axis',(0.,1.,0.));
#763=DIRECTION('ref_axis',(0.707106781186547,0.,0.707106781186547));
#764=DIRECTION('',(0.,-1.,0.));
#765=DIRECTION('center_axis',(7.50254495988593E-16,-1.,0.));
#766=DIRECTION('ref_axis',(1.,7.50254495988593E-16,0.));
#767=DIRECTION('',(0.,0.,1.));
#768=DIRECTION('',(0.,0.,1.));
#769=DIRECTION('center_axis',(0.,0.,1.));
#770=DIRECTION('ref_axis',(-0.999922184897905,0.0124749408415428,0.));
#771=DIRECTION('center_axis',(0.,0.,1.));
#772=DIRECTION('ref_axis',(1.,0.,0.));
#773=DIRECTION('center_axis',(0.,0.,-1.));
#774=DIRECTION('ref_axis',(1.,0.,0.));
#775=DIRECTION('center_axis',(0.,0.,-1.));
#776=DIRECTION('ref_axis',(1.,0.,0.));
#777=DIRECTION('center_axis',(0.,0.,-1.));
#778=DIRECTION('ref_axis',(-1.,0.,0.));
#779=DIRECTION('center_axis',(0.,0.,-1.));
#780=DIRECTION('ref_axis',(1.,0.,0.));
#781=DIRECTION('center_axis',(0.,0.,-1.));
#782=DIRECTION('ref_axis',(1.,0.,0.));
#783=DIRECTION('center_axis',(0.,0.,-1.));
#784=DIRECTION('ref_axis',(1.,0.,0.));
#785=DIRECTION('center_axis',(0.,0.,-1.));
#786=DIRECTION('ref_axis',(1.,0.,0.));
#787=DIRECTION('center_axis',(0.,0.,-1.));
#788=DIRECTION('ref_axis',(1.,0.,0.));
#789=DIRECTION('center_axis',(0.,0.,1.));
#790=DIRECTION('ref_axis',(1.,0.,0.));
#791=DIRECTION('',(0.,0.,-1.));
#792=DIRECTION('center_axis',(0.,0.,1.));
#793=DIRECTION('ref_axis',(1.,0.,0.));
#794=DIRECTION('',(0.,0.,-1.));
#795=DIRECTION('',(0.,0.,-1.));
#796=DIRECTION('center_axis',(0.,0.,1.));
#797=DIRECTION('ref_axis',(1.,0.,0.));
#798=DIRECTION('',(0.,0.,-1.));
#799=DIRECTION('center_axis',(0.,0.,1.));
#800=DIRECTION('ref_axis',(1.,0.,0.));
#801=DIRECTION('',(0.,0.,-1.));
#802=DIRECTION('center_axis',(0.,0.,1.));
#803=DIRECTION('ref_axis',(1.,0.,0.));
#804=DIRECTION('',(0.,0.,-1.));
#805=DIRECTION('center_axis',(0.,0.,1.));
#806=DIRECTION('ref_axis',(1.,0.,0.));
#807=DIRECTION('',(0.,0.,-1.));
#808=DIRECTION('center_axis',(0.,0.,1.));
#809=DIRECTION('ref_axis',(1.,0.,0.));
#810=DIRECTION('',(0.,0.,-1.));
#811=DIRECTION('center_axis',(0.,0.,1.));
#812=DIRECTION('ref_axis',(1.,0.,0.));
#813=DIRECTION('center_axis',(0.,0.,1.));
#814=DIRECTION('ref_axis',(1.,0.,0.));
#815=DIRECTION('center_axis',(0.,0.,-1.));
#816=DIRECTION('ref_axis',(-1.,0.,0.));
#817=DIRECTION('center_axis',(0.,0.,1.));
#818=DIRECTION('ref_axis',(1.,0.,0.));
#819=DIRECTION('center_axis',(0.,0.,1.));
#820=DIRECTION('ref_axis',(-1.,0.,0.));
#821=DIRECTION('',(0.,0.,-1.));
#822=CARTESIAN_POINT('',(0.,0.,0.));
#823=CARTESIAN_POINT('Origin',(97.654370342953,114.300000810623,8.));
#824=CARTESIAN_POINT('',(95.504370342953,114.300000810623,8.));
#825=CARTESIAN_POINT('Origin',(97.654370342953,114.300000810623,8.));
#826=CARTESIAN_POINT('Origin',(130.991870342953,114.300000810623,8.));
#827=CARTESIAN_POINT('',(128.841870342953,114.300000810623,8.));
#828=CARTESIAN_POINT('Origin',(130.991870342953,114.300000810623,8.));
#829=CARTESIAN_POINT('Origin',(114.323120342953,97.6312508106232,8.));
#830=CARTESIAN_POINT('',(112.173120342953,97.6312508106232,8.));
#831=CARTESIAN_POINT('Origin',(114.323120342953,97.6312508106232,8.));
#832=CARTESIAN_POINT('Origin',(114.323120342953,130.968750810623,8.));
#833=CARTESIAN_POINT('',(112.173120342953,130.968750810623,8.));
#834=CARTESIAN_POINT('Origin',(114.323120342953,130.968750810623,8.));
#835=CARTESIAN_POINT('Origin',(241.373920342953,114.300000810623,2.5));
#836=CARTESIAN_POINT('',(251.500008106232,115.525703307307,0.));
#837=CARTESIAN_POINT('',(239.363945218729,124.300000810623,0.));
#838=CARTESIAN_POINT('Origin',(241.373920342953,114.300000810623,0.));
#839=CARTESIAN_POINT('',(239.128925910889,126.800000810623,2.5));
#840=CARTESIAN_POINT('Ctrl Pts',(239.363945218729,124.300000810623,0.));
#841=CARTESIAN_POINT('Ctrl Pts',(239.363630690585,124.303161779353,-2.61395069906863E-18));
#842=CARTESIAN_POINT('Ctrl Pts',(239.363316235817,124.306322752614,5.99503397527972E-6));
#843=CARTESIAN_POINT('Ctrl Pts',(239.346348612625,124.476925288433,0.000653122591049969));
#844=CARTESIAN_POINT('Ctrl Pts',(239.329948867001,124.643915283583,0.0181088972548234));
#845=CARTESIAN_POINT('Ctrl Pts',(239.298106923861,124.97187081437,0.0861601150346175));
#846=CARTESIAN_POINT('Ctrl Pts',(239.28274203033,125.132033080215,0.136571621052643));
#847=CARTESIAN_POINT('Ctrl Pts',(239.239742940012,125.584770749102,0.330881521818093));
#848=CARTESIAN_POINT('Ctrl Pts',(239.214566395727,125.855929579379,0.516279722385344));
#849=CARTESIAN_POINT('Ctrl Pts',(239.172797432874,126.311270061464,0.98013638609958));
#850=CARTESIAN_POINT('Ctrl Pts',(239.156557752066,126.491439061107,1.25377090694121));
#851=CARTESIAN_POINT('Ctrl Pts',(239.134528595788,126.736886596745,1.8545057998383));
#852=CARTESIAN_POINT('Ctrl Pts',(239.128925910889,126.800000810623,2.17566860981682));
#853=CARTESIAN_POINT('Ctrl Pts',(239.128925910889,126.800000810623,2.5));
#854=CARTESIAN_POINT('',(254.000008106232,115.668177624483,2.5));
#855=CARTESIAN_POINT('Origin',(241.373920342953,114.300000810623,2.5));
#856=CARTESIAN_POINT('Ctrl Pts',(254.000008106232,115.668177624483,2.5));
#857=CARTESIAN_POINT('Ctrl Pts',(254.000008106232,115.668177624483,2.17490784396266));
#858=CARTESIAN_POINT('Ctrl Pts',(253.936597273564,115.66476419627,1.85294888139346));
#859=CARTESIAN_POINT('Ctrl Pts',(253.690056837596,115.651346234265,1.2512078207532));
#860=CARTESIAN_POINT('Ctrl Pts',(253.50921668171,115.64146189347,0.977250728329831));
#861=CARTESIAN_POINT('Ctrl Pts',(253.052608476371,115.616063294117,0.513687106306492));
#862=CARTESIAN_POINT('Ctrl Pts',(252.781079783519,115.600776460661,0.328656526307427));
#863=CARTESIAN_POINT('Ctrl Pts',(252.174923116839,115.565871229084,0.0698018172757552));
#864=CARTESIAN_POINT('Ctrl Pts',(251.84491802983,115.546490661465,0.00153602986007421));
#865=CARTESIAN_POINT('Ctrl Pts',(251.507554246584,115.526158290848,8.54163731059396E-6));
#866=CARTESIAN_POINT('Ctrl Pts',(251.503781176889,115.525930830782,-3.1201259888646E-18));
#867=CARTESIAN_POINT('Ctrl Pts',(251.500008106232,115.525703307307,0.));
#868=CARTESIAN_POINT('Origin',(200.577951907586,124.152951004963,2.5));
#869=CARTESIAN_POINT('',(228.673920342953,126.800000810623,2.5));
#870=CARTESIAN_POINT('',(228.68046112036,124.300000810857,0.));
#871=CARTESIAN_POINT('Ctrl Pts',(228.673920342953,126.800000810623,2.5));
#872=CARTESIAN_POINT('Ctrl Pts',(228.673773517139,126.800000042339,2.41184543151054));
#873=CARTESIAN_POINT('Ctrl Pts',(228.673651112057,126.795332257821,2.32369104691461));
#874=CARTESIAN_POINT('Ctrl Pts',(228.673552991294,126.786023526591,2.2360292684751));
#875=CARTESIAN_POINT('Ctrl Pts',(228.673454873609,126.77671508737,2.14837023992738));
#876=CARTESIAN_POINT('Ctrl Pts',(228.673381038515,126.762766031699,2.06120415229331));
#877=CARTESIAN_POINT('Ctrl Pts',(228.673331078345,126.744254268546,1.9750178768042));
#878=CARTESIAN_POINT('Ctrl Pts',(228.673281119632,126.72574304559,1.88883411634183));
#879=CARTESIAN_POINT('Ctrl Pts',(228.673255034045,126.702669458898,1.80363047028109));
#880=CARTESIAN_POINT('Ctrl Pts',(228.673252147269,126.675162375526,1.71988282079384));
#881=CARTESIAN_POINT('Ctrl Pts',(228.673249260571,126.647656034671,1.6361374319673));
#882=CARTESIAN_POINT('Ctrl Pts',(228.673269570831,126.615716551429,1.55384831032017));
#883=CARTESIAN_POINT('Ctrl Pts',(228.673312144677,126.579522301332,1.47347503495695));
#884=CARTESIAN_POINT('Ctrl Pts',(228.673354717467,126.543328949091,1.39310375338085));
#885=CARTESIAN_POINT('Ctrl Pts',(228.673419551948,126.502881192218,1.31464855812672));
#886=CARTESIAN_POINT('Ctrl Pts',(228.673505466163,126.458404913184,1.23854759438074));
#887=CARTESIAN_POINT('Ctrl Pts',(228.673591378434,126.413929640197,1.1624483520287));
#888=CARTESIAN_POINT('Ctrl Pts',(228.673698368514,126.365426212923,1.08870355191303));
#889=CARTESIAN_POINT('Ctrl Pts',(228.673825019103,126.313165489737,1.0177250146888));
#890=CARTESIAN_POINT('Ctrl Pts',(228.673951667103,126.260905834423,0.946747927805715));
#891=CARTESIAN_POINT('Ctrl Pts',(228.674097973669,126.204889254786,0.878537286607682));
#892=CARTESIAN_POINT('Ctrl Pts',(228.674262302024,126.145428552911,0.813473991237559));
#893=CARTESIAN_POINT('Ctrl Pts',(228.674426660583,126.085956921613,0.748398736637581));
#894=CARTESIAN_POINT('Ctrl Pts',(228.674609046267,126.023040148737,0.686472257524152));
#895=CARTESIAN_POINT('Ctrl Pts',(228.674807620001,125.957029697201,0.628040489104738));
#896=CARTESIAN_POINT('Ctrl Pts',(228.675006180972,125.891023488205,0.569612476137893));
#897=CARTESIAN_POINT('Ctrl Pts',(228.675220926471,125.821924273938,0.514678968000979));
#898=CARTESIAN_POINT('Ctrl Pts',(228.675449836967,125.750118004292,0.463546796218221));
#899=CARTESIAN_POINT('Ctrl Pts',(228.675678734755,125.678315721234,0.412417463225569));
#900=CARTESIAN_POINT('Ctrl Pts',(228.675921794398,125.603806983129,0.365089257371174));
#901=CARTESIAN_POINT('Ctrl Pts',(228.676176838506,125.527007908673,0.321826501403018));
#902=CARTESIAN_POINT('Ctrl Pts',(228.676431870685,125.450212426129,0.278565768844814));
#903=CARTESIAN_POINT('Ctrl Pts',(228.67669888453,125.371127141905,0.239370285943861));
#904=CARTESIAN_POINT('Ctrl Pts',(228.676975569123,125.290193692955,0.204458934656581));
#905=CARTESIAN_POINT('Ctrl Pts',(228.677252296982,125.209247588112,0.169542124139294));
#906=CARTESIAN_POINT('Ctrl Pts',(228.677538696849,125.126453077604,0.138910932092121));
#907=CARTESIAN_POINT('Ctrl Pts',(228.677832348663,125.042272656431,0.112736467741229));
#908=CARTESIAN_POINT('Ctrl Pts',(228.678125966072,124.958102098063,0.0865650700608114));
#909=CARTESIAN_POINT('Ctrl Pts',(228.678426831889,124.872546305151,0.0648494640078114));
#910=CARTESIAN_POINT('Ctrl Pts',(228.678732445926,124.78608308573,0.0477109269833571));
#911=CARTESIAN_POINT('Ctrl Pts',(228.679038089715,124.699611449062,0.0305707215117796));
#912=CARTESIAN_POINT('Ctrl Pts',(228.679348480761,124.612232569743,0.0180085486007924));
#913=CARTESIAN_POINT('Ctrl Pts',(228.679661065104,124.524434532245,0.0100945791599978));
#914=CARTESIAN_POINT('Ctrl Pts',(228.679926695157,124.449824917808,0.00336939229399592));
#915=CARTESIAN_POINT('Ctrl Pts',(228.680193907545,124.374912905084,9.31498910455275E-17));
#916=CARTESIAN_POINT('Ctrl Pts',(228.68046112036,124.300000810857,0.));
#917=CARTESIAN_POINT('',(132.809486563004,123.798344247279,0.));
#918=CARTESIAN_POINT('',(200.577951907586,124.152951004963,0.));
#919=CARTESIAN_POINT('',(134.272760728498,126.306035232943,2.5));
#920=CARTESIAN_POINT('Ctrl Pts',(132.809486563004,123.798344247279,0.));
#921=CARTESIAN_POINT('Ctrl Pts',(132.81092025504,123.800706620751,-4.03884251691622E-18));
#922=CARTESIAN_POINT('Ctrl Pts',(132.812353823854,123.803069069119,3.32716077248916E-6));
#923=CARTESIAN_POINT('Ctrl Pts',(132.939796251628,124.013112396585,0.000594997330290206));
#924=CARTESIAN_POINT('Ctrl Pts',(133.06481470257,124.221338784344,0.026895179716583));
#925=CARTESIAN_POINT('Ctrl Pts',(133.304847151322,124.62500289887,0.130767745678687));
#926=CARTESIAN_POINT('Ctrl Pts',(133.41991308885,124.820446382026,0.207289044432211));
#927=CARTESIAN_POINT('Ctrl Pts',(133.687191684986,125.278186016295,0.458087851551725));
#928=CARTESIAN_POINT('Ctrl Pts',(133.830819235953,125.527652175454,0.660290113405463));
#929=CARTESIAN_POINT('Ctrl Pts',(134.05350010576,125.917479246282,1.13305416106655));
#930=CARTESIAN_POINT('Ctrl Pts',(134.136573581852,126.064345348704,1.38828175837587));
#931=CARTESIAN_POINT('Ctrl Pts',(134.245329594707,126.257122105741,1.93427688100357));
#932=CARTESIAN_POINT('Ctrl Pts',(134.272760728498,126.306035232943,2.2148571127301));
#933=CARTESIAN_POINT('Ctrl Pts',(134.272760728498,126.306035232943,2.5));
#934=CARTESIAN_POINT('',(200.564870531855,126.65291678025,2.5));
#935=CARTESIAN_POINT('Origin',(114.323120342953,114.300000810623,2.5));
#936=CARTESIAN_POINT('',(133.967025608009,101.800000810623,2.5));
#937=CARTESIAN_POINT('Origin',(114.323120342953,114.300000810623,2.5));
#938=CARTESIAN_POINT('',(132.543006842668,104.300000810623,0.));
#939=CARTESIAN_POINT('Origin',(114.323120342953,114.300000810623,0.));
#940=CARTESIAN_POINT('Ctrl Pts',(132.543006842668,104.300000810623,0.));
#941=CARTESIAN_POINT('Ctrl Pts',(132.54440129813,104.297644782317,2.52551470952687E-17));
#942=CARTESIAN_POINT('Ctrl Pts',(132.545795635044,104.295288683828,3.33052161325912E-6));
#943=CARTESIAN_POINT('Ctrl Pts',(132.668254836088,104.088337948551,0.000588447854252721));
#944=CARTESIAN_POINT('Ctrl Pts',(132.788364915822,103.883289615031,0.0262832242867768));
#945=CARTESIAN_POINT('Ctrl Pts',(133.019270996563,103.485409480012,0.127696945570144));
#946=CARTESIAN_POINT('Ctrl Pts',(133.130062968356,103.292656731743,0.202447074733991));
#947=CARTESIAN_POINT('Ctrl Pts',(133.39034789604,102.836194008929,0.449700092737094));
#948=CARTESIAN_POINT('Ctrl Pts',(133.531121879462,102.585871060082,0.651103353436303));
#949=CARTESIAN_POINT('Ctrl Pts',(133.750289813157,102.193122268837,1.12377843705435));
#950=CARTESIAN_POINT('Ctrl Pts',(133.83229184349,102.044735235382,1.38022303524811));
#951=CARTESIAN_POINT('Ctrl Pts',(133.939870145525,101.849559853126,1.92962078875825));
#952=CARTESIAN_POINT('Ctrl Pts',(133.967025608009,101.800000810623,2.21255728924835));
#953=CARTESIAN_POINT('Ctrl Pts',(133.967025608009,101.800000810623,2.5));
#954=CARTESIAN_POINT('Origin',(153.243357416301,104.300000810623,2.5));
#955=CARTESIAN_POINT('',(239.128925910889,101.800000810623,2.5));
#956=CARTESIAN_POINT('',(153.243357416301,101.800000810623,2.5));
#957=CARTESIAN_POINT('',(239.363945218729,104.300000810623,0.));
#958=CARTESIAN_POINT('',(153.243357416301,104.300000810623,0.));
#959=CARTESIAN_POINT('Ctrl Pts',(239.363945218729,104.300000810623,0.));
#960=CARTESIAN_POINT('Ctrl Pts',(239.363630690585,104.296839841893,-2.21599279179918E-16));
#961=CARTESIAN_POINT('Ctrl Pts',(239.363316235817,104.293678868632,5.99503397368086E-6));
#962=CARTESIAN_POINT('Ctrl Pts',(239.346348612628,104.123076332801,0.00065312259109355));
#963=CARTESIAN_POINT('Ctrl Pts',(239.329948867001,103.956086337661,0.0181088972552772));
#964=CARTESIAN_POINT('Ctrl Pts',(239.298106923861,103.628130806876,0.0861601150346198));
#965=CARTESIAN_POINT('Ctrl Pts',(239.28274203033,103.467968541031,0.136571621052648));
#966=CARTESIAN_POINT('Ctrl Pts',(239.239742940012,103.015230872144,0.330881521818106));
#967=CARTESIAN_POINT('Ctrl Pts',(239.214566395727,102.744072041868,0.516279722385359));
#968=CARTESIAN_POINT('Ctrl Pts',(239.172797432874,102.288731559783,0.980136386099663));
#969=CARTESIAN_POINT('Ctrl Pts',(239.156557752066,102.108562560139,1.25377090694127));
#970=CARTESIAN_POINT('Ctrl Pts',(239.134528595788,101.863115024502,1.85450579983838));
#971=CARTESIAN_POINT('Ctrl Pts',(239.128925910889,101.800000810623,2.17566860981686));
#972=CARTESIAN_POINT('Ctrl Pts',(239.128925910889,101.800000810623,2.5));
#973=CARTESIAN_POINT('Origin',(205.824307567741,124.300000810623,2.5));
#974=CARTESIAN_POINT('',(205.824307567741,124.300000810623,0.));
#975=CARTESIAN_POINT('',(205.824307567741,126.800000810623,2.5));
#976=CARTESIAN_POINT('Origin',(241.373920342953,114.300000810623,2.5));
#977=CARTESIAN_POINT('',(254.000008106232,112.931823996763,2.5));
#978=CARTESIAN_POINT('Origin',(241.373920342953,114.300000810623,2.5));
#979=CARTESIAN_POINT('',(251.500008106232,113.074298313939,0.));
#980=CARTESIAN_POINT('Origin',(241.373920342953,114.300000810623,0.));
#981=CARTESIAN_POINT('Ctrl Pts',(251.500008106232,113.074298313939,0.));
#982=CARTESIAN_POINT('Ctrl Pts',(251.503781176889,113.074070790464,-3.1201259888646E-18));
#983=CARTESIAN_POINT('Ctrl Pts',(251.507554246584,113.073843330399,8.54163731059396E-6));
#984=CARTESIAN_POINT('Ctrl Pts',(251.84491802983,113.053510959781,0.00153602986007421));
#985=CARTESIAN_POINT('Ctrl Pts',(252.174923116839,113.034130392162,0.0698018172757552));
#986=CARTESIAN_POINT('Ctrl Pts',(252.781079783519,112.999225160585,0.328656526307427));
#987=CARTESIAN_POINT('Ctrl Pts',(253.052608476371,112.983938327129,0.513687106306492));
#988=CARTESIAN_POINT('Ctrl Pts',(253.50921668171,112.958539727776,0.977250728329831));
#989=CARTESIAN_POINT('Ctrl Pts',(253.690056837596,112.948655386981,1.2512078207532));
#990=CARTESIAN_POINT('Ctrl Pts',(253.936597273564,112.935237424976,1.85294888139346));
#991=CARTESIAN_POINT('Ctrl Pts',(254.000008106232,112.931823996763,2.17490784396266));
#992=CARTESIAN_POINT('Ctrl Pts',(254.000008106232,112.931823996763,2.5));
#993=CARTESIAN_POINT('Origin',(251.500008106232,113.615912403693,2.5));
#994=CARTESIAN_POINT('',(251.500008106232,113.615912403693,0.));
#995=CARTESIAN_POINT('',(254.000008106232,113.615912403693,2.5));
#996=CARTESIAN_POINT('Origin',(254.000008106232,112.931823996763,0.));
#997=CARTESIAN_POINT('',(254.000008106232,115.668177624483,11.5));
#998=CARTESIAN_POINT('',(254.000008106232,115.668177624483,0.));
#999=CARTESIAN_POINT('',(254.000008106232,112.931823996763,11.5));
#1000=CARTESIAN_POINT('',(254.000008106232,113.615912403693,11.5));
#1001=CARTESIAN_POINT('',(254.000008106232,112.931823996763,0.));
#1002=CARTESIAN_POINT('Origin',(241.373920342953,114.300000810623,0.));
#1003=CARTESIAN_POINT('',(239.128925910889,126.800000810623,11.5));
#1004=CARTESIAN_POINT('',(239.128925910889,126.800000810623,0.));
#1005=CARTESIAN_POINT('Origin',(241.373920342953,114.300000810623,11.5));
#1006=CARTESIAN_POINT('Origin',(239.128925910889,126.800000810623,0.));
#1007=CARTESIAN_POINT('',(228.673920342953,126.800000810623,11.5));
#1008=CARTESIAN_POINT('',(228.673920342953,126.800000810623,0.));
#1009=CARTESIAN_POINT('',(205.824307567741,126.800000810623,11.5));
#1010=CARTESIAN_POINT('Origin',(228.673920342953,126.800000810623,0.));
#1011=CARTESIAN_POINT('',(134.272760728498,126.306035232943,11.5));
#1012=CARTESIAN_POINT('',(134.272760728498,126.306035232943,0.));
#1013=CARTESIAN_POINT('',(200.564870531855,126.65291678025,11.5));
#1014=CARTESIAN_POINT('Origin',(172.519689224592,114.300000810623,0.));
#1015=CARTESIAN_POINT('',(111.145992758647,114.300000810623,0.));
#1016=CARTESIAN_POINT('Origin',(114.323120342953,114.300000810623,0.));
#1017=CARTESIAN_POINT('',(245.773920342953,114.300000810623,0.));
#1018=CARTESIAN_POINT('Origin',(241.373920342953,114.300000810623,0.));
#1019=CARTESIAN_POINT('',(239.823920342953,120.650000810623,0.));
#1020=CARTESIAN_POINT('Origin',(241.373920342953,120.650000810623,0.));
#1021=CARTESIAN_POINT('',(239.823920342953,107.950000810623,0.));
#1022=CARTESIAN_POINT('Origin',(241.373920342953,107.950000810623,0.));
#1023=CARTESIAN_POINT('Origin',(241.373920342953,114.300000810623,11.5));
#1024=CARTESIAN_POINT('',(251.500008106232,113.074298313939,14.));
#1025=CARTESIAN_POINT('',(239.363945218729,104.300000810623,14.));
#1026=CARTESIAN_POINT('Origin',(241.373920342953,114.300000810623,14.));
#1027=CARTESIAN_POINT('',(239.128925910889,101.800000810623,11.5));
#1028=CARTESIAN_POINT('Ctrl Pts',(239.363945218729,104.300000810623,14.));
#1029=CARTESIAN_POINT('Ctrl Pts',(239.363630690585,104.296839841897,14.));
#1030=CARTESIAN_POINT('Ctrl Pts',(239.363316235818,104.29367886863,13.999994004966));
#1031=CARTESIAN_POINT('Ctrl Pts',(239.346348612616,104.123076332859,13.9993468774092));
#1032=CARTESIAN_POINT('Ctrl Pts',(239.329948867002,103.956086337672,13.9818911027469));
#1033=CARTESIAN_POINT('Ctrl Pts',(239.298106923861,103.628130806876,13.9138398849655));
#1034=CARTESIAN_POINT('Ctrl Pts',(239.28274203033,103.467968541031,13.8634283789474));
#1035=CARTESIAN_POINT('Ctrl Pts',(239.239742940012,103.015230872144,13.6691184781819));
#1036=CARTESIAN_POINT('Ctrl Pts',(239.214566395727,102.744072041868,13.4837202776146));
#1037=CARTESIAN_POINT('Ctrl Pts',(239.172797432874,102.288731559783,13.0198636139004));
#1038=CARTESIAN_POINT('Ctrl Pts',(239.156557752066,102.108562560139,12.7462290930588));
#1039=CARTESIAN_POINT('Ctrl Pts',(239.134528595788,101.863115024502,12.1454942001616));
#1040=CARTESIAN_POINT('Ctrl Pts',(239.128925910889,101.800000810623,11.8243313901831));
#1041=CARTESIAN_POINT('Ctrl Pts',(239.128925910889,101.800000810623,11.5));
#1042=CARTESIAN_POINT('Origin',(241.373920342953,114.300000810623,11.5));
#1043=CARTESIAN_POINT('Ctrl Pts',(251.500008106232,113.074298313939,14.));
#1044=CARTESIAN_POINT('Ctrl Pts',(251.50378117689,113.074070790464,14.));
#1045=CARTESIAN_POINT('Ctrl Pts',(251.507554246583,113.073843330398,13.9999914583627));
#1046=CARTESIAN_POINT('Ctrl Pts',(251.844918029857,113.053510959797,13.9984639701398));
#1047=CARTESIAN_POINT('Ctrl Pts',(252.174923116843,113.034130392162,13.9301981827222));
#1048=CARTESIAN_POINT('Ctrl Pts',(252.781079783519,112.999225160585,13.6713434736926));
#1049=CARTESIAN_POINT('Ctrl Pts',(253.052608476371,112.983938327129,13.4863128936935));
#1050=CARTESIAN_POINT('Ctrl Pts',(253.50921668171,112.958539727776,13.0227492716702));
#1051=CARTESIAN_POINT('Ctrl Pts',(253.690056837596,112.948655386981,12.7487921792468));
#1052=CARTESIAN_POINT('Ctrl Pts',(253.936597273564,112.935237424976,12.1470511186065));
#1053=CARTESIAN_POINT('Ctrl Pts',(254.000008106232,112.931823996763,11.8250921560373));
#1054=CARTESIAN_POINT('Ctrl Pts',(254.000008106232,112.931823996763,11.5));
#1055=CARTESIAN_POINT('Origin',(153.243357416301,104.300000810623,11.5));
#1056=CARTESIAN_POINT('',(132.543006842668,104.300000810623,14.));
#1057=CARTESIAN_POINT('',(153.243357416301,104.300000810623,14.));
#1058=CARTESIAN_POINT('',(133.967025608009,101.800000810623,11.5));
#1059=CARTESIAN_POINT('Ctrl Pts',(132.543006842668,104.300000810623,14.));
#1060=CARTESIAN_POINT('Ctrl Pts',(132.544401298131,104.297644782315,14.));
#1061=CARTESIAN_POINT('Ctrl Pts',(132.545795635043,104.295288683831,13.9999966694784));
#1062=CARTESIAN_POINT('Ctrl Pts',(132.668254836141,104.088337948451,13.9994115521455));
#1063=CARTESIAN_POINT('Ctrl Pts',(132.788364915832,103.883289615013,13.9737167757088));
#1064=CARTESIAN_POINT('Ctrl Pts',(133.019270996562,103.485409480013,13.87230305443));
#1065=CARTESIAN_POINT('Ctrl Pts',(133.130062968356,103.292656731743,13.7975529252661));
#1066=CARTESIAN_POINT('Ctrl Pts',(133.39034789604,102.836194008929,13.5502999072629));
#1067=CARTESIAN_POINT('Ctrl Pts',(133.531121879462,102.585871060082,13.3488966465637));
#1068=CARTESIAN_POINT('Ctrl Pts',(133.750289813157,102.193122268837,12.8762215629457));
#1069=CARTESIAN_POINT('Ctrl Pts',(133.83229184349,102.044735235383,12.6197769647519));
#1070=CARTESIAN_POINT('Ctrl Pts',(133.939870145525,101.849559853126,12.0703792112417));
#1071=CARTESIAN_POINT('Ctrl Pts',(133.967025608009,101.800000810623,11.7874427107516));
#1072=CARTESIAN_POINT('Ctrl Pts',(133.967025608009,101.800000810623,11.5));
#1073=CARTESIAN_POINT('',(153.243357416301,101.800000810623,11.5));
#1074=CARTESIAN_POINT('Origin',(114.323120342953,114.300000810623,11.5));
#1075=CARTESIAN_POINT('',(132.809486563004,123.798344247279,14.));
#1076=CARTESIAN_POINT('Origin',(114.323120342953,114.300000810623,14.));
#1077=CARTESIAN_POINT('Ctrl Pts',(132.809486563004,123.798344247279,14.));
#1078=CARTESIAN_POINT('Ctrl Pts',(132.810920255041,123.800706620754,14.));
#1079=CARTESIAN_POINT('Ctrl Pts',(132.812353823853,123.803069069116,13.9999966728392));
#1080=CARTESIAN_POINT('Ctrl Pts',(132.939796251681,124.013112396682,13.9994050026695));
#1081=CARTESIAN_POINT('Ctrl Pts',(133.06481470258,124.221338784361,13.9731048202791));
#1082=CARTESIAN_POINT('Ctrl Pts',(133.304847151322,124.625002898869,13.8692322543214));
#1083=CARTESIAN_POINT('Ctrl Pts',(133.41991308885,124.820446382026,13.7927109555679));
#1084=CARTESIAN_POINT('Ctrl Pts',(133.687191684986,125.278186016295,13.5419121484483));
#1085=CARTESIAN_POINT('Ctrl Pts',(133.830819235953,125.527652175454,13.3397098865945));
#1086=CARTESIAN_POINT('Ctrl Pts',(134.05350010576,125.917479246282,12.8669458389335));
#1087=CARTESIAN_POINT('Ctrl Pts',(134.136573581852,126.064345348704,12.6117182416242));
#1088=CARTESIAN_POINT('Ctrl Pts',(134.245329594707,126.257122105741,12.0657231189964));
#1089=CARTESIAN_POINT('Ctrl Pts',(134.272760728498,126.306035232943,11.7851428872699));
#1090=CARTESIAN_POINT('Ctrl Pts',(134.272760728498,126.306035232943,11.5));
#1091=CARTESIAN_POINT('Origin',(114.323120342953,114.300000810623,11.5));
#1092=CARTESIAN_POINT('Origin',(205.824307567741,124.300000810623,11.5));
#1093=CARTESIAN_POINT('',(228.680461030819,124.300000810623,14.));
#1094=CARTESIAN_POINT('Ctrl Pts',(228.673920342953,126.800000810623,11.5));
#1095=CARTESIAN_POINT('Ctrl Pts',(228.674067170777,126.800000810623,11.5881545684895));
#1096=CARTESIAN_POINT('Ctrl Pts',(228.674213998601,126.795333730497,11.6763089530854));
#1097=CARTESIAN_POINT('Ctrl Pts',(228.674360826425,126.786025640125,11.7639707315249));
#1098=CARTESIAN_POINT('Ctrl Pts',(228.674507649643,126.776717841741,11.8516297600726));
#1099=CARTESIAN_POINT('Ctrl Pts',(228.674654472861,126.762769363377,11.9387958477067));
#1100=CARTESIAN_POINT('Ctrl Pts',(228.674801296079,126.744258115067,12.0249821231958));
#1101=CARTESIAN_POINT('Ctrl Pts',(228.674948115013,126.725747406938,12.1111658836581));
#1102=CARTESIAN_POINT('Ctrl Pts',(228.675094933946,126.702674272615,12.1963695297189));
#1103=CARTESIAN_POINT('Ctrl Pts',(228.67524175288,126.675167580917,12.2801171792061));
#1104=CARTESIAN_POINT('Ctrl Pts',(228.67538856785,126.647661631726,12.3638625680327));
#1105=CARTESIAN_POINT('Ctrl Pts',(228.675535382821,126.615722479457,12.4461516896798));
#1106=CARTESIAN_POINT('Ctrl Pts',(228.675682197791,126.579528502085,12.526524965043));
#1107=CARTESIAN_POINT('Ctrl Pts',(228.67582900912,126.543335422563,12.6068962466191));
#1108=CARTESIAN_POINT('Ctrl Pts',(228.675975820448,126.502887880165,12.6853514418732));
#1109=CARTESIAN_POINT('Ctrl Pts',(228.676122631776,126.458411760456,12.7614524056192));
#1110=CARTESIAN_POINT('Ctrl Pts',(228.676269439784,126.41393664679,12.8375516479712));
#1111=CARTESIAN_POINT('Ctrl Pts',(228.676416247791,126.365433323691,12.9112964480869));
#1112=CARTESIAN_POINT('Ctrl Pts',(228.676563055799,126.313172653244,12.9822749853112));
#1113=CARTESIAN_POINT('Ctrl Pts',(228.676709860807,126.260913050666,13.0532520721943));
#1114=CARTESIAN_POINT('Ctrl Pts',(228.676856665815,126.204896472333,13.1214627133923));
#1115=CARTESIAN_POINT('Ctrl Pts',(228.677003470822,126.145435724612,13.1865260087625));
#1116=CARTESIAN_POINT('Ctrl Pts',(228.677150302814,126.08596404746,13.2516012633624));
#1117=CARTESIAN_POINT('Ctrl Pts',(228.677297134806,126.023047181565,13.3135277424759));
#1118=CARTESIAN_POINT('Ctrl Pts',(228.677443966798,125.957036594657,13.3719595108953));
#1119=CARTESIAN_POINT('Ctrl Pts',(228.677590789353,125.891030250298,13.4303875238621));
#1120=CARTESIAN_POINT('Ctrl Pts',(228.677737611908,125.821930858325,13.485321031999));
#1121=CARTESIAN_POINT('Ctrl Pts',(228.677884434463,125.750124373912,13.5364532037818));
#1122=CARTESIAN_POINT('Ctrl Pts',(228.678031248866,125.678321876101,13.5875825367745));
#1123=CARTESIAN_POINT('Ctrl Pts',(228.67817806327,125.603812886189,13.6349107426289));
#1124=CARTESIAN_POINT('Ctrl Pts',(228.678324877673,125.527013528573,13.678173498597));
#1125=CARTESIAN_POINT('Ctrl Pts',(228.67847168521,125.450217762881,13.7214342311552));
#1126=CARTESIAN_POINT('Ctrl Pts',(228.678618492747,125.371132164163,13.7606297140562));
#1127=CARTESIAN_POINT('Ctrl Pts',(228.678765300284,125.290198375416,13.7955410653435));
#1128=CARTESIAN_POINT('Ctrl Pts',(228.678912130778,125.209251930724,13.8304578758607));
#1129=CARTESIAN_POINT('Ctrl Pts',(228.679058961271,125.126457055061,13.8610890679079));
#1130=CARTESIAN_POINT('Ctrl Pts',(228.679205791765,125.042276249761,13.8872635322588));
#1131=CARTESIAN_POINT('Ctrl Pts',(228.679352605056,124.95810530731,13.9134349299392));
#1132=CARTESIAN_POINT('Ctrl Pts',(228.679499418347,124.872549111351,13.9351505359922));
#1133=CARTESIAN_POINT('Ctrl Pts',(228.679646231638,124.786085476461,13.9522890730167));
#1134=CARTESIAN_POINT('Ctrl Pts',(228.679793059221,124.699613424284,13.9694292784882));
#1135=CARTESIAN_POINT('Ctrl Pts',(228.679939886804,124.612234117035,13.9819914513992));
#1136=CARTESIAN_POINT('Ctrl Pts',(228.680086714387,124.524435645868,13.98990542084));
#1137=CARTESIAN_POINT('Ctrl Pts',(228.680211486531,124.449825662906,13.996630607706));
#1138=CARTESIAN_POINT('Ctrl Pts',(228.680336258675,124.374913277516,14.));
#1139=CARTESIAN_POINT('Ctrl Pts',(228.680461030819,124.300000810623,14.));
#1140=CARTESIAN_POINT('',(239.363945218729,124.300000810623,14.));
#1141=CARTESIAN_POINT('',(205.824307567741,124.300000810623,14.));
#1142=CARTESIAN_POINT('Ctrl Pts',(239.363945218729,124.300000810623,14.));
#1143=CARTESIAN_POINT('Ctrl Pts',(239.363630690585,124.303161779349,14.));
#1144=CARTESIAN_POINT('Ctrl Pts',(239.363316235818,124.306322752618,13.999994004966));
#1145=CARTESIAN_POINT('Ctrl Pts',(239.346348612615,124.476925288358,13.9993468774092));
#1146=CARTESIAN_POINT('Ctrl Pts',(239.329948867002,124.643915283569,13.981891102748));
#1147=CARTESIAN_POINT('Ctrl Pts',(239.298106923861,124.97187081437,13.9138398849654));
#1148=CARTESIAN_POINT('Ctrl Pts',(239.28274203033,125.132033080215,13.8634283789474));
#1149=CARTESIAN_POINT('Ctrl Pts',(239.239742940012,125.584770749102,13.6691184781819));
#1150=CARTESIAN_POINT('Ctrl Pts',(239.214566395727,125.855929579379,13.4837202776146));
#1151=CARTESIAN_POINT('Ctrl Pts',(239.172797432874,126.311270061464,13.0198636139004));
#1152=CARTESIAN_POINT('Ctrl Pts',(239.156557752066,126.491439061107,12.7462290930588));
#1153=CARTESIAN_POINT('Ctrl Pts',(239.134528595788,126.736886596745,12.1454942001617));
#1154=CARTESIAN_POINT('Ctrl Pts',(239.128925910889,126.800000810623,11.8243313901832));
#1155=CARTESIAN_POINT('Ctrl Pts',(239.128925910889,126.800000810623,11.5));
#1156=CARTESIAN_POINT('Origin',(200.577951907586,124.152951004963,11.5));
#1157=CARTESIAN_POINT('',(200.577951907586,124.152951004963,14.));
#1158=CARTESIAN_POINT('Origin',(241.373920342953,114.300000810623,11.5));
#1159=CARTESIAN_POINT('',(251.500008106232,115.525703307307,14.));
#1160=CARTESIAN_POINT('Origin',(241.373920342953,114.300000810623,14.));
#1161=CARTESIAN_POINT('Ctrl Pts',(251.500008106232,115.525703307307,14.));
#1162=CARTESIAN_POINT('Ctrl Pts',(251.50378117689,115.525930830782,14.));
#1163=CARTESIAN_POINT('Ctrl Pts',(251.507554246583,115.526158290848,13.9999914583627));
#1164=CARTESIAN_POINT('Ctrl Pts',(251.844918029856,115.54649066145,13.9984639701398));
#1165=CARTESIAN_POINT('Ctrl Pts',(252.174923116843,115.565871229084,13.9301981827223));
#1166=CARTESIAN_POINT('Ctrl Pts',(252.781079783519,115.600776460661,13.6713434736926));
#1167=CARTESIAN_POINT('Ctrl Pts',(253.052608476371,115.616063294117,13.4863128936935));
#1168=CARTESIAN_POINT('Ctrl Pts',(253.50921668171,115.64146189347,13.0227492716702));
#1169=CARTESIAN_POINT('Ctrl Pts',(253.690056837596,115.651346234265,12.7487921792468));
#1170=CARTESIAN_POINT('Ctrl Pts',(253.936597273564,115.66476419627,12.1470511186065));
#1171=CARTESIAN_POINT('Ctrl Pts',(254.000008106232,115.668177624483,11.8250921560373));
#1172=CARTESIAN_POINT('Ctrl Pts',(254.000008106232,115.668177624483,11.5));
#1173=CARTESIAN_POINT('Origin',(251.500008106232,113.615912403693,11.5));
#1174=CARTESIAN_POINT('',(251.500008106232,113.615912403693,14.));
#1175=CARTESIAN_POINT('Origin',(133.967025608009,101.800000810623,0.));
#1176=CARTESIAN_POINT('',(239.128925910889,101.800000810623,0.));
#1177=CARTESIAN_POINT('',(133.967025608009,101.800000810623,0.));
#1178=CARTESIAN_POINT('Origin',(114.323120342953,114.300000810623,0.));
#1179=CARTESIAN_POINT('Origin',(172.519689224592,114.300000810623,14.));
#1180=CARTESIAN_POINT('',(128.841870342953,114.300000810623,14.));
#1181=CARTESIAN_POINT('Origin',(130.991870342953,114.300000810623,14.));
#1182=CARTESIAN_POINT('',(111.145992758647,114.300000810623,14.));
#1183=CARTESIAN_POINT('Origin',(114.323120342953,114.300000810623,14.));
#1184=CARTESIAN_POINT('',(245.773920342953,114.300000810623,14.));
#1185=CARTESIAN_POINT('Origin',(241.373920342953,114.300000810623,14.));
#1186=CARTESIAN_POINT('',(239.823920342953,120.650000810623,14.));
#1187=CARTESIAN_POINT('Origin',(241.373920342953,120.650000810623,14.));
#1188=CARTESIAN_POINT('',(112.173120342953,97.6312508106232,14.));
#1189=CARTESIAN_POINT('Origin',(114.323120342953,97.6312508106232,14.));
#1190=CARTESIAN_POINT('',(112.173120342953,130.968750810623,14.));
#1191=CARTESIAN_POINT('Origin',(114.323120342953,130.968750810623,14.));
#1192=CARTESIAN_POINT('',(95.504370342953,114.300000810623,14.));
#1193=CARTESIAN_POINT('Origin',(97.654370342953,114.300000810623,14.));
#1194=CARTESIAN_POINT('',(239.823920342953,107.950000810623,14.));
#1195=CARTESIAN_POINT('Origin',(241.373920342953,107.950000810623,14.));
#1196=CARTESIAN_POINT('Origin',(130.991870342953,114.300000810623,0.));
#1197=CARTESIAN_POINT('',(128.841870342953,114.300000810623,0.));
#1198=CARTESIAN_POINT('Origin',(114.323120342953,114.300000810623,0.));
#1199=CARTESIAN_POINT('',(111.145992758647,114.300000810623,0.));
#1200=CARTESIAN_POINT('Ctrl Pts',(245.773920342953,114.300000810623,0.));
#1201=CARTESIAN_POINT('Ctrl Pts',(245.773920342953,115.700000810623,0.));
#1202=CARTESIAN_POINT('Ctrl Pts',(241.373920342953,115.700000810623,0.));
#1203=CARTESIAN_POINT('Ctrl Pts',(236.973920342953,115.700000810623,0.));
#1204=CARTESIAN_POINT('Ctrl Pts',(236.973920342953,114.300000810623,0.));
#1205=CARTESIAN_POINT('Ctrl Pts',(236.973920342953,112.900000810623,0.));
#1206=CARTESIAN_POINT('Ctrl Pts',(241.373920342953,112.900000810623,0.));
#1207=CARTESIAN_POINT('Ctrl Pts',(245.773920342953,112.900000810623,0.));
#1208=CARTESIAN_POINT('Ctrl Pts',(245.773920342953,114.300000810623,0.));
#1209=CARTESIAN_POINT('Ctrl Pts',(245.773920342953,114.300000810623,14.));
#1210=CARTESIAN_POINT('Ctrl Pts',(245.773920342953,115.700000810623,14.));
#1211=CARTESIAN_POINT('Ctrl Pts',(241.373920342953,115.700000810623,14.));
#1212=CARTESIAN_POINT('Ctrl Pts',(236.973920342953,115.700000810623,14.));
#1213=CARTESIAN_POINT('Ctrl Pts',(236.973920342953,114.300000810623,14.));
#1214=CARTESIAN_POINT('Ctrl Pts',(236.973920342953,112.900000810623,14.));
#1215=CARTESIAN_POINT('Ctrl Pts',(241.373920342953,112.900000810623,14.));
#1216=CARTESIAN_POINT('Ctrl Pts',(245.773920342953,112.900000810623,14.));
#1217=CARTESIAN_POINT('Ctrl Pts',(245.773920342953,114.300000810623,14.));
#1218=CARTESIAN_POINT('',(245.773920342953,114.300000810623,0.));
#1219=CARTESIAN_POINT('Origin',(241.373920342953,120.650000810623,0.));
#1220=CARTESIAN_POINT('',(239.823920342953,120.650000810623,0.));
#1221=CARTESIAN_POINT('Origin',(114.323120342953,97.6312508106232,0.));
#1222=CARTESIAN_POINT('',(112.173120342953,97.6312508106232,0.));
#1223=CARTESIAN_POINT('Origin',(114.323120342953,130.968750810623,0.));
#1224=CARTESIAN_POINT('',(112.173120342953,130.968750810623,0.));
#1225=CARTESIAN_POINT('Origin',(97.654370342953,114.300000810623,0.));
#1226=CARTESIAN_POINT('',(95.504370342953,114.300000810623,0.));
#1227=CARTESIAN_POINT('Origin',(241.373920342953,107.950000810623,0.));
#1228=CARTESIAN_POINT('',(239.823920342953,107.950000810623,0.));
#1229=CARTESIAN_POINT('Origin',(241.373920342953,114.300000810623,0.));
#1230=CARTESIAN_POINT('Origin',(241.373920342953,114.300000810623,12.));
#1231=CARTESIAN_POINT('',(245.773920342953,114.300000810623,12.));
#1232=CARTESIAN_POINT('Origin',(241.373920342953,114.300000810623,12.));
#1233=CARTESIAN_POINT('Origin',(241.373920342953,114.300000810623,2.));
#1234=CARTESIAN_POINT('',(245.773920342953,114.300000810623,2.));
#1235=CARTESIAN_POINT('Origin',(241.373920342953,114.300000810623,2.));
#1236=CARTESIAN_POINT('Ctrl Pts',(245.773920342953,114.300000810623,2.));
#1237=CARTESIAN_POINT('Ctrl Pts',(245.773920342953,115.700000810623,2.));
#1238=CARTESIAN_POINT('Ctrl Pts',(241.373920342953,115.700000810623,2.));
#1239=CARTESIAN_POINT('Ctrl Pts',(236.973920342953,115.700000810623,2.));
#1240=CARTESIAN_POINT('Ctrl Pts',(236.973920342953,114.300000810623,2.));
#1241=CARTESIAN_POINT('Ctrl Pts',(236.973920342953,112.900000810623,2.));
#1242=CARTESIAN_POINT('Ctrl Pts',(241.373920342953,112.900000810623,2.));
#1243=CARTESIAN_POINT('Ctrl Pts',(245.773920342953,112.900000810623,2.));
#1244=CARTESIAN_POINT('Ctrl Pts',(245.773920342953,114.300000810623,2.));
#1245=CARTESIAN_POINT('Ctrl Pts',(245.773920342953,114.300000810623,12.));
#1246=CARTESIAN_POINT('Ctrl Pts',(245.773920342953,115.700000810623,12.));
#1247=CARTESIAN_POINT('Ctrl Pts',(241.373920342953,115.700000810623,12.));
#1248=CARTESIAN_POINT('Ctrl Pts',(236.973920342953,115.700000810623,12.));
#1249=CARTESIAN_POINT('Ctrl Pts',(236.973920342953,114.300000810623,12.));
#1250=CARTESIAN_POINT('Ctrl Pts',(236.973920342953,112.900000810623,12.));
#1251=CARTESIAN_POINT('Ctrl Pts',(241.373920342953,112.900000810623,12.));
#1252=CARTESIAN_POINT('Ctrl Pts',(245.773920342953,112.900000810623,12.));
#1253=CARTESIAN_POINT('Ctrl Pts',(245.773920342953,114.300000810623,12.));
#1254=CARTESIAN_POINT('',(245.773920342953,114.300000810623,0.));
#1255=UNCERTAINTY_MEASURE_WITH_UNIT(LENGTH_MEASURE(0.01),#1259,
'DISTANCE_ACCURACY_VALUE',
'Maximum model space distance between geometric entities at asserted c
onnectivities');
#1256=UNCERTAINTY_MEASURE_WITH_UNIT(LENGTH_MEASURE(0.01),#1259,
'DISTANCE_ACCURACY_VALUE',
'Maximum model space distance between geometric entities at asserted c
onnectivities');
#1257=(
GEOMETRIC_REPRESENTATION_CONTEXT(3)
GLOBAL_UNCERTAINTY_ASSIGNED_CONTEXT((#1255))
GLOBAL_UNIT_ASSIGNED_CONTEXT((#1259,#1261,#1262))
REPRESENTATION_CONTEXT('','3D')
);
#1258=(
GEOMETRIC_REPRESENTATION_CONTEXT(3)
GLOBAL_UNCERTAINTY_ASSIGNED_CONTEXT((#1256))
GLOBAL_UNIT_ASSIGNED_CONTEXT((#1259,#1261,#1262))
REPRESENTATION_CONTEXT('','3D')
);
#1259=(
LENGTH_UNIT()
NAMED_UNIT(*)
SI_UNIT(.MILLI.,.METRE.)
);
#1260=(
LENGTH_UNIT()
NAMED_UNIT(*)
SI_UNIT($,.METRE.)
);
#1261=(
NAMED_UNIT(*)
PLANE_ANGLE_UNIT()
SI_UNIT($,.RADIAN.)
);
#1262=(
NAMED_UNIT(*)
SI_UNIT($,.STERADIAN.)
SOLID_ANGLE_UNIT()
);
#1263=SHAPE_DEFINITION_REPRESENTATION(#1264,#1265);
#1264=PRODUCT_DEFINITION_SHAPE('',$,#1267);
#1265=SHAPE_REPRESENTATION('',(#589),#1257);
#1266=PRODUCT_DEFINITION_CONTEXT('part definition',#1271,'design');
#1267=PRODUCT_DEFINITION('QUADCOPTER 2.0 (v10~recovered)','Motor Arm',#1268,
#1266);
#1268=PRODUCT_DEFINITION_FORMATION('',$,#1273);
#1269=PRODUCT_RELATED_PRODUCT_CATEGORY('Motor Arm','Motor Arm',(#1273));
#1270=APPLICATION_PROTOCOL_DEFINITION('international standard',
'automotive_design',2009,#1271);
#1271=APPLICATION_CONTEXT(
'Core Data for Automotive Mechanical Design Process');
#1272=PRODUCT_CONTEXT('part definition',#1271,'mechanical');
#1273=PRODUCT('QUADCOPTER 2.0 (v10~recovered)','Motor Arm',$,(#1272));
#1274=PRESENTATION_STYLE_ASSIGNMENT((#1275));
#1275=SURFACE_STYLE_USAGE(.BOTH.,#1276);
#1276=SURFACE_SIDE_STYLE('',(#1277));
#1277=SURFACE_STYLE_FILL_AREA(#1278);
#1278=FILL_AREA_STYLE('Steel - Satin',(#1279));
#1279=FILL_AREA_STYLE_COLOUR('Steel - Satin',#1280);
#1280=COLOUR_RGB('Steel - Satin',0.627450980392157,0.627450980392157,0.627450980392157);
ENDSEC;
END-ISO-10303-21;
